<mxfile host="app.diagrams.net" agent="Mozilla/5.0 (Macintosh; Intel Mac OS X 10_15_7) AppleWebKit/537.36 (KHTML, like Gecko) Chrome/125.0.0.0 Safari/537.36" version="24.7.5">
  <diagram name="第 1 页" id="sJv2a7iH5bA3qAJGK2w_">
    <mxGraphModel dx="1562" dy="833" grid="1" gridSize="10" guides="1" tooltips="1" connect="1" arrows="1" fold="1" page="1" pageScale="1" pageWidth="827" pageHeight="1169" math="0" shadow="0">
      <root>
        <mxCell id="0" />
        <mxCell id="1" parent="0" />
        <mxCell id="UPzLl73hw9SHNejODM_K-3" value="(a)" style="text;html=1;align=center;verticalAlign=middle;whiteSpace=wrap;rounded=0;fontFamily=Times New Roman;fontSize=20;" parent="1" vertex="1">
          <mxGeometry x="222.05" y="294" width="60" height="30" as="geometry" />
        </mxCell>
        <mxCell id="UPzLl73hw9SHNejODM_K-4" value="(b)" style="text;html=1;align=center;verticalAlign=middle;whiteSpace=wrap;rounded=0;fontFamily=Times New Roman;fontSize=20;" parent="1" vertex="1">
          <mxGeometry x="222.05" y="630" width="60" height="30" as="geometry" />
        </mxCell>
        <mxCell id="5uwCVwZwQJ1VnvGeNQBW-2" value="" style="shape=image;verticalLabelPosition=bottom;labelBackgroundColor=default;verticalAlign=top;aspect=fixed;imageAspect=0;image=data:image/png,iVBORw0KGgoAAAANSUhEUgAAA3gAAAIZCAYAAAD0sZ0FAAAACXBIWXMAAAsTAAALEwEAmpwYAAAgAElEQVR4nOzdf3yPdf////t+GVGc82tqhmLCabNZoUUNRcROpcivIudZyiZCzknn+SmiRH6GctY7IRIlREhjTJINsVh+jPm1+Z2Fxfb8/rHvjvbK5ke2vfY6drteLrtcXo7jebyez+N1sMP9dTyO5+EmSbt37zYCAAAAALisunXrurkR7gAAAADAHjxzXgQEBDhzHAAAAACAvygpKUmS5O7kcQAAAAAACggBDwAAAABsgoAHAAAAADZBwAMAAAAAmyDgAQAAAIBNEPAAAAAAwCYIeAAAAABgEwQ8AAAAALAJAh4AAAAA2AQBDwAAAABsgoAHAAAAADZBwAMAAAAAmyDgAQAAAIBNEPAAAAAAwCYIeAAAAABgEwQ8AAAAALAJAh4AAAAA2AQBDwAAAABsgoAHAAAAADZBwAMAAAAAmyDgAQAAAIBNEPAAAAAAwCY8nT0AILfff/9dR44cyXPdHXfcIS8vryIeUeHYsmWLGjdu7OxhAAAAwGYIeCgwr36xT5ezzHW1rV2ljPo2v/2K5adOndLs2bM1btw4nTlzRpJUuXJlvfTSS3ruuedUsWLFGxrT8ePHlZKSopCQkBvarjDf//Tp0woPD1d8fLxq165dKOMCAABAyUSJJgrM4TMZOnT6+n6On7uU53v4+vrq1Vdf1WOPPWYt6969u6Kjo2843GVlZalHjx5auXLlTe1XQb//jBkzdO7cOU2cOLFQxgUAAICSi4CHYunWW2/N8/X1yszM1IABAwot3P3V9//99981efJkSdJHH31kXaUEAAAACgIBDy4lIiJC4eHhCg8P14QJEzRw4EDdcccdCgwM1JIlSyRll3k+9NBDmjJliqTsK2bh4eFavHixJOnEiRPq3r27atWqpbvuuktvv/12gb7/1Xz66afWPYa//fabPvjgg3zbLliwQC1atJCPj4/atWunBQsW3NB6AAAAlDwEPLiUIUOGKCYmRjExMRo4cKAOHjwoLy8v/fTTT+rTp48uXLigjIwMhYWFWdsEBwerZ8+eqlu3ri5cuKCmTZtq7ty5WrVqlR5//HG98sormjZtWoG8/7VMmDDBCoaSNHnyZF2+fPmKdrNmzVLXrl3l5+enefPmafny5erevbuSk5Ovaz0AAABKJgIeXErNmjWt1+3atdPChQvVvXt3SdlX5pKTk1WtWjV16tTJanfvvfeqT58+uvvuuzVx4kTt3btXtWvXVu3atdWmTRtJsq7i3ez7X83KlStVo0YN9evXz+onJSVFCxcudGh38eJFDR06VFlZWWrTpo1atmwpHx8fXbp0SevWrbvmegAAAJRcBDy4FHf3P/7K5sxAWa5cOWvZxYsXr7r96tWrJUnly5fXJ598opiYGElScnKyfv3115t+/6sZN26cIiMj5e7urueee85a/u677zq027hxo1JTU60xeHp66osvvtA777yjxx9//JrrAQAAUHLxmAS4PDc3N+t1VlbWVdvu3btXUnagO3z4sMqWLavRo0dLkozJ+xEPN/L++fnpp58UGxurbt26adasWfL0/OOf3qZNm7Rx40Y1a9ZMkrR//35rXXJyssLCwtSiRQu1aNHiutYDAACg5CLgoUSpXr26kpOTdebMGfXt21eVKlVyWP/bb78VSr/jx4/Xo48+qp9//tla1qxZM23cuFFS9lW8nICXe9bQhIQEq0Q0x7XWAwAAoOSiRBPFUu6rafldWbua3KWWmZmZ1uuWLVtay7766itr+eTJk3Xq1Kmbfv+8HDp0SEuXLtVHH32kMWPGWD/jxo2z2ixatMi6Mvf3v//dWj59+nQdPHhQknT58mVt3779musBAABQchHwUCzlDlunT5/O8/XJkyfzXVaxYkWrtHLr1q16/fXXtXr1aj300ENW2/79+2vQoEEaPHiwVqxYIR8fn5t+/7yMGDFCdevWVdmyZR2WN2vWTA0aNJCUHRJff/11SVK9evX06KOPSsq+oti+fXuNGTNGbdq0UVJS0jXXAwAAoOTyiIyM/K+U/R9W4GbE7f1Vt5TyUDnva//cUcFboTVvu+I9Dh48qEGDBmnevHnWlbGdO3fqwIEDuueee9S7d28dOHDAalu5cmWNHTtW58+flyQlJiaqZ8+eqlSpkry8vPTDDz8oKSlJDRs2VL9+/eTv76+//e1vWrNmjTIyMrRlyxZrwpUyZcroiSeeuKn3/7OWLVvqyy+/1OHDh5WYmKhmzZrptttuU0ZGhl544QXFxcUpIyNDUnZQ3L9/vzp16qSHH35YW7Zs0f79+5WWlqZt27apf//+6tWrlyRdcz0AAABKlpwLEW67d+82khQQEODUAQGFISMjQ8YYlS5d+orlO3bsUO3atVW+fPkCf/+CcvToUaWmpiowMNChLPR61wMAAKBkyKnkIuABAAAAgIvLCXh85Q8AAAAANkHAAwAAAACbIOABAAAAgE0Q8AAAAADAJgh4AAAAAGATBDwAAAAAsAlPZw8AyM/Ro0f1ww8/6Ny5c2rYsKGCgoKUkJCgBg0aSJKOHDlita1UqZLKlStXoP0fP35cv/322zXbVahQQRUqVHBYlpGRoW+++UYdO3Ys0DEBAAAAV0PAQ4F57bPtupxprqvtXb7l9Gz4Xfmunzx5sl555RWFhIQoNDRUY8aMkbu7u3799Vdt3rxZly5dUq9evRQbGytJmjRpkiIjI29ovMePH1dKSopCQkLyXL9582bNnDlTX3zxhbWsSZMmkqTTp09bzxoZMGCAJkyYIEk6c+aMpk2bpkmTJunMmTO6cOHCDY0JAAAAuBkEPBSY5VuP6vfLWdfVtkntivkGvDVr1mjAgAFq3769lixZIkm6fPmyevfurdmzZysjI0N+fn4aOnSoFfBuVFZWlnr06KHw8PB8A167du3UtGlTh4C3atUq3XrrrZKk9evX65///Ke1Ljo6Wh9++KFSU1MlSaVLl/5LYwMAAAD+Ku7BQ7Ezf/58GWN0+vRp/frrr5IkT09PTZw4URUrVtTvv/8uSbrtttv+0vtnZmZqwIABWrly5TXb5oS5Pzt+/LgCAgI0duxYa9m///1vHT58WP7+/n9pXAAAAMDNIuCh2PHx8ZEkbdiwQQ0bNtS8efNkjJGPj4/mz5+vihUrXnX7o0eP6sknn5Sfn58CAgL0wgsv6NChQ5KkU6dO6aGHHtKUKVMkSTNmzFB4eLgWL158Q2OcOXOmNm/erHbt2mnYsGGSssOgh4eHKleufKO7DAAAABQIAh6KnYiICLm7Z//VPHjwoJ566indc8892rBhg1q1aqXy5cvnu+3Zs2fVpEkTLViwQFOmTNHMmTM1bdo0tW/fXunp6crIyFBYWJjVPjg4WD179lTdunWve3xJSUmaPHmyJMnd3V2+vr5/cU8BAACAgkXAQ7HTtGlTh9JHSdqyZYseeOABTZ069arbjh8/XikpKSpTpozatWunFi1aqEqVKtq+fbvefPNNVatWTZ06dbLa33vvverTp4/uvvvu6xpb48aNVb9+fR09evTGdwwAAAAoZAQ8FEuDBg3S119/rVq1alnLMjMz1b9/f33zzTf5brd8+XJJUpUqVVSqVClJsh5h8P3339/0uCZOnKh+/frJzc3tpt8LAAAAKGgEPBQ78+fPlyQ98sgj2rVrl9566y2HZ9zlrM/Lvn37JDnOYJkTxrZt23bTY7v//vs1efJkPfPMMzf9XgAAAEBBI+Ch2FmwYIF+/PFHSVKpUqU0dOhQ7dixQ35+fpKkmJiYfLfNmaDFmD+ex3f58mVJuuq9ezfqkUceKbD3AgAAAAoKAQ/F0jvvvOPw5xo1amjAgAGSpHr16uW7Xc4z7c6ePWsty3kdFBQkSdYELlJ22efV5A6Kuf/8+OOP5xvysrKy8twWAAAAKGwEPBRL8+fP18iRI62wJEmrV6+Wu7u7Bg4cKEk6ffq0te7EiROSpGHDhsnNzU3Hjx/XwYMHdejQIZ08eVJubm4aMmSIJKlixYpW2ebWrVv1+uuva/Xq1XmO49SpUw5/zunT3d3dISjmMMZY22RkZCg9Pf0v7T8AAADwVxDwUCw9/PDDmj9/vv7+97+rV69eqlWrlrZv367PPvtMrVu31oEDB/Tvf//bav/BBx9o7dq1atSokRYtWqTbbrtNbdq00SOPPKIKFSroiy++0H333SdJql69ukaOHKly5crp66+/1tmzZ9W6desrxvDxxx8rIiLCYdljjz2mDz74IM8xT5s2zRpbjgcffDDf9gAAAEBBc9u9e7eRpICAAGePBS7u3IVL193Ww8Ndt5TyyHNdYmKi6tevL0nau3evDhw4oGrVqqlOnTry9PS8rvfPysrSrl275Obmprp16+Z5tS0jI0PGGIcJWQAAAABXlJSUJImABwAAAAAuLyfgUaIJAAAAADZBwAMAAAAAmyDgAQAAAIBNEPAAAAAAwCYIeAAAAABgEwQ8AAAAALAJAh4AAAAA2AQBDwAAAABsgoAHAAAAADZBwAMAAAAAmyDgAQAAAIBNEPAAAAAAwCYIeAAAAABgEwQ8AAAAALAJAh4AAAAA2AQBDwAAAABsgoAHAAAAADZBwAMAAAAAmyDgAQAAAIBNeDp7AAAAQEpLS9OXX36plStXytfXVx07dlTLli3l6Zn/qTozM1PLli3T999/r7179+rpp59Wu3btrtnXqVOn9N5776lUqVIaOnRoQe4GAMDJuIIHAICTHTlyRE2aNNHQoUPVtWtXrVu3Tm3atFGfPn3y3eb9999XzZo11aNHD/3666967bXXrhnukpOTFRUVJX9/f40YMUI7d+4s6F0BADgZV/AAAHCydu3aKTk5WU888YQ6d+4sb29vdezYUZ988okCAgL06quvWm0zMjLUp08fzZ07V5UqVdKGDRvUsGHDa/bxyiuvaPHixdq7d68uX75cmLsDAHAiruABAOBEv/zyi7Zt2yZJqly5siQpNDTUWv/uu+86tH/55Zc1d+5clS5dWqtXr76ucCdJb7zxhnbt2qWoqKgCGjkAoDgi4AEA4ERxcXHW6/Pnz0uSfH195e3tLSn7frk9e/ZIklasWKGpU6dKkjp16qSgoKDr7qdUqVKSpNtvv71Axg0AKJ4IeAAAOFF6err1+uTJk5IkNzc3+fv7W8s3b94sSZowYYK17LffflPv3r0VFRWllStXXnd/7u6c+gHAzrgHDwAgSYqJidGyZcuUlJSk1q1bKyIiwiFk5Fi8eLESExOvWF61atWrTgpyI32UJAEBAdbruLg4Xb58WZ6eng6zZ3p6eiotLU2rVq2ylh0/flyrVq3ShQsXNHnyZI0aNUrR0dFFOnYAQPHD13gAAI0ePVrh4eFKTU1V8+bNFRUVpQYNGlj3huXIzMzU888/r+jo6Ct+tm7dWiB9lDTh4eFq0KCBpOwreFFRUYqLi1NaWprVpkaNGkpKSlJWVpYkqWbNmoqLi9OPP/4oNzc3SdJ///tfJScnF/n4AQDFCwEPAEq4RYsWWVd+hg0bpsGDByskJETp6elq3769jh07ZrVds2aNw59z69u3b4H0UdJ4enpq0aJFatSokSRp2rRpCgsLs8o1fXx8FBQUpJSUFGubMmXKSJLq16+ve++9V5J06dIlh/v5AAAlEwEPAEq4hQsXWq//PIvj4cOHtWDBAmv9nDlz1KVLF61YscLh59tvv1VgYGCB9FESBQQEKCEhQQcOHFBCQoLefPNNa1337t3l7e2t6tWrW8vOnDljva5du7b1+siRI0UzYABAscU9eABQwuU1i2PNmjWtZZs2bVJkZKQuXLigRYsWqXnz5tqzZ4/q1aunJk2aqGzZsgXWR0nn7+8vf39/Pf3005KkKlWqaPjw4ZKk4OBgeXh4KDMzU2lpacrKypK7u7t8fHys7XNCdlZWlnbt2qW7776bSVVuQFpamr788kutXLlSvr6+6tixo1q2bOlwP6SUPbPpjBkz8nyPzp07q06dOvn2cerUKc2cOVM///yzzp8/r1q1aqlbt25X/YIEAG4EAQ8ASrg/z+JYo0YN1ahRw1qWM4PjkiVLdO7cOX399df6+uuvJWUHkNdee03/+te/5OXlddN9QIqMjNT27dvl7e2tWbNmqWrVqpKksmXLKjQ0VJs2bVJmZqZ27typhg0bKjMzU1L2zJtNmjSRMUahoaFKSEhQUFCQ4uPjHUJe7oec52yL7KufYWFhOn36tGbOnKnXX39dU6dOVc+ePTVr1iyHtvPmzctzQhtPT8+rTjS0fv16dezYUadPn9bbb7+tSpUqadCgQRo7dqzee+89PffccwW+XwBKHr7WA4ASLvcsjmvXrpWkK2ZwlLLLM/8sLS1N/fv312OPPSZjzE33UZKdOXNG/fr105QpU+Tv76/Y2Fi1adPGoc3HH3+sChUqSJL+97//SZI1Sc0bb7yh8uXLa8eOHUpISLDWbd++3eE9ck/EcvDgwcLaHZfTrl07JScn6+GHH1bnzp01atQoSdInn3yikSNHOrTN69+CJHXo0MEK5H9mjFG3bt10+vRpBQcHa8iQIerdu7ceffRRZWVlacCAAbp48WLB7hSAEokzKqDCL8v57rvv9P333+fbf0hIyBX/kStpCnOK/kuXLumdd965av8DBgzQLbfc8tcG7+IiIyOtEsoJEyaoTp062rhxo7U+50pbp06dFBwcrEOHDmnLli0Os2YuXbpU06dPV79+/W6qj5IoMTFRb731lhYuXKi6devq/fffV7du3fIsfa1bt64+//xzDRkyRNOmTdN3332nQ4cOafjw4VYpZ4MGDRQUFKRt27YpMDDQKv2bPXu2Zs+e7fCohdjYWDVv3lz9+/dXly5dimaHi6FffvnFCsp/vkdUkt599129+uqrkqT9+/dr8+bN+vLLL1W6dGmH96lXr16+fezevduaKGfv3r26ePGiSpcurbCwMM2ePVsZGRk6cOCA6tatW6D75mo4Fzgfx8AGdu/ebXbv3m2Akurw4cOmZs2apnz58mbBggWmYcOGRpLp2bPnFW2nTp1qJF3x4+npaY4dO5ZvH4888kie2+X8fPDBB4W5i8Xem2++aX3mY8eONZJMuXLlzNatWx3aXb582fj6+ub5GUZGRub7/ps2bbrq5+/n52eysrIKezeLtVGjRhkvL688P5+33347z22+//57c99991ntIiIiCryPkiAlJcUkJiaaixcv3tB2hw8fNvHx8SYzM/OKdZmZmWbHjh15rsOV/u///s/6u/jMM88YY4zJysoy3t7e1vJffvnFGGPMyJEjTYUKFcx//vMfM3/+fLNr167r6uPcuXPG09PTer/nnnvOZGVlmf/3//6fkWSqV69e4n8PcS5wPo6Ba8vJdQQ8lHhBQUFGknniiSeMMcZ89dVX1i+aN954w6Ft7v/M5v7p1KlTvu+fmZlpKlSokO8vMw8PD3P8+PFC3cfibOHChdZnsXPnTmOMMSEhIUaSueOOO8zRo0ettitXrsz3c9y2bVu+fYwfP/6qJ5QBAwYU+n66gvPnz5v4+Hizd+9eU6lSpev68uK3334zzZs3N5JMaGhoofQBFLYpU6ZYvw86dOhgLa9Tp461fO7cucYYY+rXr3/F75CIiAiTmJh4zX5atmzpsF3btm2Nr6+vKVeunFmwYEGh7Z8r4FzgfBwD15eT6yjRLAaKYtau3DIzM7Vs2TJ9//332rt3r55++mm1a9fupvfDFRVFWc7OnTt19uxZdevWTc2aNdPf/vY3eXh46PDhwxo8eLAefPBBVapUqaB3zWXkN31+fHy8NX1+zuyKOVP09+7d2+E9vLy8rjoD3fr161W7dm11795d/v7+VunHuHHj9OOPP6pz584FvVsuqUyZMgoODtaiRYt04sQJSdLw4cPzvadIkm655RYNGjRIsbGxCg8Pt5anpqZK0hXb/pU+gMKW+x7RuLg4Xb58WZ6enlfcJ5qQkJBnSdrixYv19ddfKyYmRvfdd1++/cyePVthYWHav3+/JGnFihWSsp99WNJ/D3EucD6OgY1wBc+5iqI8MLcZM2YYPz8/c+utt5oXX3zR7Nixo6B3yaUURVnOwoUL8yw/mzx5spFkpk2bVnA75IJq1qxpfdbJycnGmD9KRCSZ7t27G2Oyr/zceuutpl27dmbKlCnm22+/Nenp6dfVR0REhMM3j8Zkl5dUqVLF3H777ZSD5LJz505TpUoVI8m0atXKXL582Vr33XffmZdeesmsW7fOYZvly5cbSWbt2rXGGGM+++wz4+XlZTw9Pc28efNuqA/AGS5dumQaNGhg/d7p16+f2bBhg6lYsaK1bNOmTebnn382Y8eONQMHDjSPPfaYKVu2rMP5+PbbbzeXLl26al8xMTF5nse/+uqrItrb4olzgfNxDFwfJZrFRGGXB+a4ePGi6datm5FkKlWqZLZv314o++NqiqosJy8tWrQw7u7uJjU1tUD2xVXllOlJMlu2bDHGGDNnzhxrWUBAgDHGmPnz51/x+VepUsVMmTLF/P777zfc75o1a4wk8+KLLxbo/riytWvXWsErKirqis815wuonC+hDhw4YHbs2GHCwsLMuHHjrHaPPfaYw7+RG+kDcJbdu3ebRo0a5Xme9fHxyfMeybNnz5p33nnH4d7ShISEfPuYOnWqKV26tLnzzjvNCy+8cEUfJfnLDs4FzscxcH0EvGIgKSnJ+ofxwgsvGGOMOXLkiMMv+xz79u0zXl5e5ssvvzQrVqxw+Dlw4MA1+3rxxReNJFO6dOkrbpQtyXLXkFesWNH65rVevXrW8s8++8zEx8fnWy/u5eVlNmzYcEP9Hj161Li7u5sHH3ywMHbLpeT+4mL8+PHGGMeTR/369Y0xxnTs2DHfY/Doo4/e8Ld+Of+5iomJKfB9cjUTJ040QUFBpkWLFuadd94xSUlJebb7+OOPHW6q9/DwMIGBgWb27NkO7ebNm2c8PT2Np6en+fTTT2+oD8DZDhw4YBISEhyuXFxt0ghjsr+cdXNzM5LM0qVL82xz7tw5U6ZMGSPJvPbaa8YYY8aMGePwu2zjxo0Fvj+ugnOB83EMXB8BrxgoivJAY/4on5JknnrqqULZF1dVlGU5ueWU206ZMqUQ9841fPrpp9bn6O/vb5YsWWJeeukla9kjjzxijDHmo48+Mv/5z3/Ms88+m+e37O+9995195mZmWl8fX1N1apVmWXQGLN+/Xpz8uTJ62qblZVltmzZYuLi4q5aknP06FGHMpwb6QMoDgIDA60rE9dzG0RQUJDx9PQ0Z86cMcZk/57ZuXOn9TtmwYIF1u+r3F+K1K5d21pekmdU5lzgfBwD10fAKwaKqjywTZs21jYdO3Y0zzzzjImMjDTffPNNoe2bKymKspw/Cw8PN+7u7ubIkSMFuSsuqyim6M9t7dq1RpJ5/vnnC2oXANhI//79jSTj7e1tVqxYYS3/7bffzIgRI8zbb79tzp0757BNkyZNTHh4uDEm+4uQ4OBgI8kEBQWZzMxMs2TJEuv3Ve4v93IqbCSZH3/8sWh2sJjiXOB8HAPXRsArBoqiPDA1NdW4u7tb7Zs1a2aViEgyo0aNKqrdLfYKqyznz1JTU42Hh4e5//77C2LYtlEUU/TniIyMNJLM6tWrC2LoAGzi9OnT5vnnn7euYPzwww8O63NPI+/n52fmzp1r0tPTzbRp00z9+vXNoUOHjDHGbN++3eFcnZCQYH799VdTo0YNI2VPLpSVlWWysrKsaejbt2/PBBOGc0FxwDFwXQS8YqAoygNjY2OtdjVr1jTGZM9glxNKvLy8zP79+4twr4u/gi7L+bPp06cbSWbChAkFOm67yP0fqP/85z/XbP/FF18YSWbIkCHWsmPHjuV77LKyssztt99uKlWqVKInNADwh507d5pevXqZsmXLmpCQEPP+++/nWYKcnp5uWrZsaTw8PBwqPbp06eJQgpyZmWlNohYYGGidD3bs2GFd6bj33ntNnTp1jIeHh3nxxRfN2bNni2x/XQHnAufjGLgeAl4xUdjlgXPnzrXa1KtXz1repEkTa/mcOXMKbf9cTWGU5fxZ69atjZubm0lJSSncnXFBRTFF//r1640k07dv38LdGQAuIyUlxSQmJuZ5zs3L8ePHTUxMzFUnC8rMzDQ7duzI8zxw6NAhExcXZxISEq57evmShHOB83EMXBMBr5gprPLA3FfwqlWrZi3v3r27tXzs2LEFui+uqDDLcnI7fvy48fT0NE2bNi2yfXMVRTFFvzHGumE8d4AHABQPnAucj2Pgugh4xVRBlwemp6dbpSQeHh7W8pyaZ0klerKVoirLyfHBBx8YSeadd94p9H1zFUUxRX+OrKws4+fnZ3x8fHj+GgAUI5wLnI9j4Ppycp3b7t27jSQFBAQIzhUZGakpU6bI29tbixcvVps2bSRJ58+f15gxY3TrrbeqX79+KleunLVN06ZNdcstt2jNmjUyxqhx48ZKSEhQUFCQ4uPj5e7urqZNm2rTpk2SpO3bt6thw4Z68cUX9d5778nNzU2nT59W+fLlnbLPznbo0CGdO3dOd955p7y9va/Z/sSJE9q5c6duv/121alTJ882WVlZ+vnnn1WvXj25u7s7rNuzZ4/279+ve+65RxUqVCiQfXB1GzZsUL169eTj43PNtsYYJSQkKCMjQ4GBgSpbtmye7Y4dOyZJ8vX1dVielZWlb7/9Vj4+PmrcuPHNDx4AUCA4Fzgfx8D1JSUlSZIIeMXAmTNn9O9//1vTp0+Xv7+/Pv/8c91zzz3W+kWLFunxxx+XJPn5+entt99Wx44d9cknn2jy5MlauXKl7rjjDv30008KDAy0tktISFCjRo20e/duNW3aVGfOnNGAAQM0YcIE3X///dqwYYNGjhyp4cOHF/k+AwAAACg4OQHP/RrtUIgSExP19NNPy8/PTz/88IPef/99JSYmOoQ7SWrTpo1atoMqWNMAACAASURBVGwpDw8PHTp0SN26dZO/v79iYmIUGxurO+64Q5LUoEEDBQUFSZICAwOtsFe3bl19/vnnCg4O1rRp0xQUFKSff/5Zw4cPJ9wBAAAANsIVPCcq6vJASTpy5IhSU1MVFBSU53oAAAAArocSTQAAipEeMxOdPQTN7lvf2UMAAPxFlGgCAAAAgM0Q8AAAAADAJgh4AAAAAGATBDwAAAAAsAkCHgAAAADYhKezBwAAKB6cPYsjMzgCAHDzuIIHAAAAADZBwAMAAAAAm6BEEwAAQJQpA7AHruABAAAAgE0Q8AAAAADAJijRBERZTnHAMQAAcC5wPo6B6+MKHgAAAADYBAEPAAAAAGyCgAcAAAAANsE9eMWAs2udJeqdAQAAADvgCh4AAAAA2AQBDwAAAABsgoAHAAAAADZBwAMAAAAAmyDgAQAAAIBNEPAAAAAAwCYIeAAAAABgEwQ8AAAAALAJAh4AAAAA2AQBDwAAAABswtPZAygoMTExWrZsmZKSktS6dWtFRETI39//inaLFy9WYmLiFcurVq2qPn36FMVQAQAAAKBQ2CLgjR49WtHR0erZs6eaN2+uqKgoRUdHa/369QoKCrLaZWZm6vnnn9exY8eueI/IyMiiHDIAAAAAFDiXL9FctGiRoqOjJUnDhg3T4MGDFRISovT0dLVv394hzK1ZsybPcCdJffv2LZLxAgAAAEBhcfkreAsXLrReV65cWZIUGhqq+Ph4HT58WAsWLLCuzs2ZM0ddunRR7969Hd7Dy8tLgYGBRTdoAAAAACgELn8FLy4uznp9/vx5SVLNmjWtZZs2bZIkXbhwQYsWLdK5c+e0Z88eeXl56f7771ebNm3UsmXLIh0zAAAAABQGlw946enp1uuTJ09KkmrUqGEt27x5syRpyZIlOnfunL7++mv1799frVq10p133qmpU6fq0qVLRTtoAAAAACgELh/wAgICrNdr166VJHl6/lF5mvN6zpw5V2yblpam/v3767HHHpMxppBHCgAAAACFy+XvwYuMjLTKNCdMmKA6depo48aN1vqcq3mdOnVScHCwDh06pC1btmjr1q1Wm6VLl2r69Onq16/fXxrD0aNHb2IPigc77IMr4/N3Po6B83EMnI9j4Fx8/s7HMXA+Vz8G1apVc/YQXD/gde3aVfv27dN///tfHTx4UB06dHBYHx4eLkl65plnHJZv2rRJgwYNssLhN99885cDHgAAAAAUBy4f8CQpOjpaAwcO1K5du1S+fHk1adJEJ06ckKenp3r16pXnNk2aNNGqVavUtm1bxcbG6vDhw3+5/5tP6qdvcvubVxy+bXAu5x4DPn+JY1AccAyci3OB8/FvwPk4Bs7HMXB1Ln8PXo4yZcooODhYW7du1YkTJyRJw4cPV9WqVfPd5pZbbtGgQYMk/XGlDwAAAABclW0CniQlJiZaZZatWrXSiBEjrHUxMTEaOHCgYmNjHbYpXbq0JOnRRx8tuoECAAAAQCGwTcBbt26dwsPDlZaWpqioKC1fvlweHh7W+qioKE2YMEEtWrRQr169dPDgQe3cuVMjR47UuHHj1KJFCyeOHgAAAABunssHvEmTJqlRo0YaMWKEhg4dqqSkJE2cOFFeXl4O7QYPHixfX19J0ieffKI777xT3bp1U79+/awyTQAAAABwZS4/yUrjxo3Vo0cP+fj4XLVdr1691LNnTyUkJCgjI0OBgYEqW7ZsEY0SAAAAAAqfywe8sLCw627r5uamkJCQQhwNAAAAADiPy5doAgAAAACyEfAAAAAAwCYIeAAAAABgEwQ8AAAAALAJAh4AAAAA2AQBDwAAAABsgoAHAAAAADZBwAMAAAAAmyDgAQAAAIBNEPAAAAAAwCYIeAAAAABgEwQ8AAAAALAJAh4AAAAA2AQBDwAAAABsgoAHAAAAADZBwAMAAAAAmyDgAQAAAIBNEPAAAAAAwCYIeAAAAABgEwQ8AAAAALAJAh4AAAAA2AQBDwAAAABsgoAHAAAAADZBwAMAAAAAmyDgAQAAAIBNEPAAAAAAwCYIeAAAAABgEwQ8AAAAALAJAh4AAAAA2AQBDwAAAABsgoAHAAAAADZBwAMAAAAAmyDgAQAAAIBNEPAAAAAAwCYIeAAAAABgEwQ8AAAAALAJAh4AAAAA2AQBDwAAAABsgoAHAAAAADZBwAMAAAAAmyDgAQAAAIBNEPAAAAAAwCYIeAAAAABgEwQ8AAAAALAJAh4AAAAA2AQBDwAAAABsgoAHAAAAADZBwAMAAAAAm/B09gAKSkxMjJYtW6akpCS1bt1aERER8vf3v6JdfHy8PvjgA+3bt0/+/v7q16+fQkJCnDBiAAAAAChYtriCN3r0aIWHhys1NVXNmzdXVFSUGjRooG3btjm0mzJlikJDQzV9+nStXLlSM2fO1L333qvvvvvOSSMHAAAAgILj8gFv0aJFio6OliQNGzZMgwcPVkhIiNLT09W+fXsdO3ZMkrRhwwYNHz5cvXv31j/+8Q95emZfvMzMzNRbb73ltPEDAAAAQEFx+YC3cOFC63XlypUlSaGhoZKkw4cPa8GCBZKkOXPmaOXKlfrf//6nL774wiHU/fbbb0U4YgAAAAAoHC4f8OLi4qzX58+flyTVrFnTWrZp0yZJ0nvvvacmTZpYy1u1amW97tSpUyGPEgAAAAAKn8sHvPT0dOv1yZMnJUk1atSwlm3evDnP7T755BNJ0jPPPKOBAwcW4ggBAAAAoGi4fMALCAiwXq9du1aSrPvr/vxakjZu3KgnnnhC48aNkyQtXbpUa9asKYKRAgAAAEDhcvnHJERGRlplmhMmTFCdOnW0ceNGa33uq3mSlJaWpv3791t/PnHihDp06KCTJ0+qTJkyf2kMR48e/UvbFSd22AdXxufvfBwD5+MYOB/HwLn4/J2PY+B8rn4MqlWr5uwhuP4VvK5du2rUqFHy8vLSwYMH1aFDB02YMMFaHx4e7tA+IiJCP/74oyZOnCgPDw9J0oULF7iKBwAAAMDlufwVPEmKjo7WwIEDtWvXLpUvX15NmjTRiRMn5OnpqV69euW5TVRUlPbt26eJEydKkvbt2/eX+7/5pH76Jre/ecXh2wbncu4x4POXOAbFAcfAuTgXOB//BpyPY+B8HANX5/JX8HKUKVNGwcHB2rp1q06cOCFJGj58uKpWrZrvNpGRkdbrkJCQQh8jAAAAABQm2wQ8SUpMTFS/fv0kZT8GYcSIEZKkrKwsvfXWW3r33Xd1+fJlq32pUqUkSXfddZf17DwAAAAAcFW2CXjr1q1TeHi40tLSFBUVpeXLl1v32G3atEnDhg3ToEGD9OCDD+rbb7/VxYsXNXbsWHl7e2vOnDny9vZ28h4AAAAAwM1x+XvwJk2apA8//FDly5fX0KFD1bFjR9WpU8ehzT333KP7779f69ev14YNG9S6dWt5enrqwQcf1Pbt2x0etQAAAAAArsrlA17jxo3Vo0cP+fj45NvG09NTsbGxSkpKUkpKinx8fFS3bl3dcsstRThSAAAAAChcLh/wwsLCrrttQEAAV+sAAAAA2JZt7sEDAAAAgJKOgAcAAAAANkHAAwAAAACbIOABAAAAgE0Q8AAAAADAJgh4AAAAAGATBDwAAAAAsAkCHgAAAADYBAEPAAAAAGyCgAcAAAAANkHAAwAAAACbIOABAAAAgE0Q8AAAAADAJgh4AAAAAGATBDwAAAAAsAkCHgAAAADYBAEPAAAAAGyCgAcAAAAANkHAAwAAAACbIOABAAAAgE0Q8AAAAADAJgh4AAAAAGATBDwAAAAAsAkCHgAAAADYBAEPAAAAAGyCgAcAAAAANkHAAwAAAACbIOABAAAAgE0Q8AAAAADAJgh4AAAAAGATBDwAAAAAsAkCHgAAAADYBAEPAAAAAGyCgAcAAAAANkHAAwAAAACbIOABAAAAgE0Q8AAAAADAJgh4AAAAAGATBDwAAAAAsAkCHgAAAADYBAEPAAAAAGyCgAcAAAAANkHAAwAAAACbIOABAAAAgE0Q8AAAAADAJgh4AAAAAGATBDwAAAAAsAkCHgAAAADYhG0CXkxMjIYMGaKIiAhNnjxZBw8evGr77777Tp07d1ZqamoRjRAAAAAACpctAt7o0aMVHh6u1NRUNW/eXFFRUWrQoIG2bdvm0C4zM1Pz589XaGioWrZsqYULF+r8+fNOGjUAAAAAFCxPZw/gZi1atEjR0dGSpGHDhql+/fr69NNPFR8fr/bt2+vHH3+Ur6+vdu/erSeffFInTpzQkSNHnDxqAACKn5iYGC1btkxJSUlq3bq1IiIi5O/vf0W7kydP6tNPP9WqVav08MMPq0uXLqpUqdJ19fHVV19p4cKFOnXqlMLCwtStW7c8+wAA/DUufwVv4cKF1uvKlStLkkJDQyVJhw8f1oIFCyRJderUUXx8vH7++eeiHyQAAMXczq8/uK5qmAMHDqhWrVoaN26c+vbtq/Hjx+vOO+/U/v37r9nHgAEDFBERoVmzZmnp0qX697//rWbNmikpKamwdgsAShyXD3hxcXHW65xyy5o1a1rLNm3aJElyd3eXh4eHbrvtNpUrV65IxwgAQHGWEr9aW7+YICm7Gmbw4MEKCQlRenq62rdvr2PHjllt+/btq3PnzqlPnz7q0KGDnnrqKZ07d069evVSVlZWvn0sW7ZMkyZN0t/+9jd5eXlZy48cOaKBAwcW3s4BQAnj8gEvPT3den3y5ElJUo0aNaxlmzdvvmIbd3eX320AAArMwfiV1uurVcOsWLFCq1evlvTHl6k559z169dr1apV+fYxZcoUTZkyRSdOnFBycrIefvhha92aNWtkjCm4HXJRaWlpev/999W5c2f1799fK1eu1OXLl69oZ4xRbGys/vnPf+pf//qXYmNjb/jzO3XqlEaOHKm33367oIYPoJhw+XvwAgICdOLECUnS2rVrFRISIk/PP3Yr9+vCcvTo0ULvo7DZYR9cGZ+/83EMnI9j4DzH92y1XicnJ+vy5cuqWLGitSwmJkadO3fW+vXrrWUXLlzQ0aNHdeHCBWtZXFycAgMD8+xjyJAhqlevnlJTU+Xm5qa+fftq5crsYFmrVi2Hq4Ql0YUzaQoNbauzZ8/qnXfe0bvvvqupU6eqc+fOmjRpkkPbV199VR9++KFeeuklZWZmqkWLFurdu7dGjRp1zX5SUlI0Y8YMzZs3T+fPn9cTTzzBv71c+Cycz9WPQbVq1Zw9BNe/ghcZGWm9njBhgpYuXaqNGzday3JfzQMAAFe6nPHHjNKnT5+WJPn5+VnLtm7NDoB79uyxluV8gZq7KuZq99LVq1fP4c85Vwol6YEHHvgrw7aV7yY9r5SUFD3wwAN69NFHNWzYMEnS559/rgkTJljtNm3apI8++ki33HKLBgwYoJdfflkeHh766KOPFBMTc9U+Ro4cqW7dumnWrFnMIg7YmMtfwevatav27dun//73vzp48KA6dOjgsD48PLzQx3DzSf10gYzjZhSHbxucy7nHgM9f4hgUBxwD53Le539b1Ro6np7d/86dO/Xwww87zIpZunRpVatWTSkpKdaySpUqqVq1aqpQoYK17MCBA9d9HD///HNJkoeHh5599tlicvydcwzOpR3Q6ZTdkqTq1aurWrVqeuihh6z1M2fO1FtvvSVJGjNmjIwx8vX1tcpkq1atqiNHjmjSpEl66qmn8u3n3XffValSpfTyyy9r/PjxkqQyZcoUk88+B7+HnI9j4Opc/gqeJEVHR+vs2bOKj4/X3r17rZOSp6enevXq5eTRAQBQvNVt1d16fbVqmNyPGXJzc7vifXKu/l2PnPLM4cOHW/f7lVS5S2Rzrqz5+vrK29tbUvb9cnv27JExRj/99JOk7NCdI6fdzp07r9pPqVKlJEm33357wQ0eQLFji4AnZX8DFRwcrK1bt1r35A0fPlxVq1Z18sgAACjeatzTTkGdBsjLy8uqhsldFphTDZO7bDNH7pkzc89ifTU5z9sLDw/Xa6+9dnODt4HcJbI5E8a5ubk5PB9w8+bNSklJsQJg7jkGcspkz50753CVNT9MNgfYm63+hScmJqpfv36SpFatWmnEiBF5tss9I1VmZmaRjA0AgOLs7+3+dc1qmLvuustqf+nSJUmOAa9u3brX7Cc9PV19+vRRaGioFi9eLA8PD0lSRkZGge2Lq7m16h/zBcTFxVn/T/nzpHG7d++2/pzzuf0Zz/sFYJuAt27dOoWHhystLU1RUVFavnx5nr/80tLSHGb8OnjwYFEOEwCQj2+++UaDBw9W586d9dxzz2nGjBn6/fffr2gXExOjIUOGKCIiQpMnT76h3+M3s21JcK1qmLvvvttqm3Nscn9RGhAQYL1OTU1VamrqFX08++yzKleunFasWKFbb71VkrRkyRK98sorBb9DLsL37iYqf3ttSdlX8KKiohQXF6e0tDSrTY0aNa5ZIitJZ86cKdzBAij2XD7gTZo0SY0aNdKIESM0dOhQJSUlaeLEiQ4PUZWks2fPqkePHmratKnDs2K6du2qbt26OYQ+AEDRMSZL698frLZt2yo2NlY9e/bU8ePH9fzzzys4OFhnz5612o4ePVrh4eFKTU1V8+bNFRUVpQYNGmjbtm3X7Odmti1JrlYN0717d+vL05wAeOrUKUmSl5eXHnnkEUnSggULVL16dfn5+Wn+/PnW9mPGjNFnn32ms2fPqm3btrrnnnt09913q1OnTgoKCiqS/SuO3Nw91OKFiWrUqJEkadq0aQoLC7PKNX18fBQUFJRniazkeBWV2cMBuHzAa9y4sdasWaO1a9fq5ZdfVp06dfJsV758ec2ePVv79u2TMcb6SUtL09y5c1WmTJkiHjkAQJL2rl+kA5uXS8q+WhQREaGxY8dKyg4bObP9LVq0SNHR0ZKkYcOGafDgwQoJCVF6errat29/1eeo3cy2Jcm1qmGqV6+uF154QVJ2KaEkffvtt5Kkf/3rX6pVq5Ykad68ebp06ZIuX76sTz/9VJK0fPlyDR8+XFJ29czmzZv1448/avfu3crMzFRwcHCR7WdxdFvVmkpISNCBAweUkJCgN99801rXvXt3eXt751kiK914mSwAe3P5xySEhYU5ewjATTt16pRmzpypn3/+WefPn1etWrXUrVu3Kx4YnJaWpi+//FIrV66Ur6+vOnbsqJYtWzrcp3GzfZRUHAPnOfbz99brHTt2qGPHjrrrrrtUtWpVpaamWs9WW7hwodUu5xlqoaGhio+P1+HDh7VgwQKHZ6PmdjPblgS7v52tvRsWKaVWVQ0dOlQdO3bM9wvTCRMm6NKlS/q///s/NWrUSDt37tQLL7zgMCnLk08+qa+++kpSdqXM2bNn1a1bN4cgklupUqXUoEGDgt8xF+Tv7y9/f389/fTTkqQqVapYwbh69eoqW7asfvvtN4fy5Zwy2cqVK1uPrcjKytKuXbt09913M6nKDeBc4HzffPONVq1apeTkZFWsWFEhISHq3bu3NQtsjpzJmpKSktS6dWtFREQ4TExUEH24Kv7FA052fE+8ateurVdeeUX169dX27ZtNWPGDAUHB2vGjBlWuyNHjqhJkyYaOnSounbtqnXr1qlNmzbq06fPNftYv379dfVRUnEMnKtsxT+mbB83bpx27Nih33//3bqXqHXr1pL+uGIk/TGVfO5ZGzdt2pRvHzezbUngU6OBWr/80TWrYaTsGRinTZum48ePa/r06Tpx4oSmTp3q8B/bLl26KCUlRSkpKeratavKly+v06dPO1TQ5P7JyMi44taKkiwyMlLbt2+Xt7e3Zs2aZd0D6eHhoe7dsx9pkVMim5mZaZUxR0RESJKMMQoNDVWDBg0UEhJyRbBmsrm8cS5wrqIo18/KylLXrl2vqw9XRsADnMkYrf9giE6fPq3g4GANGTJEvXv31qOPPqqsrCwNGDBAFy9elCS1a9dOycnJevjhh9W5c2eNGjVKkvTJJ59o5MiRV+nCqFu3btfVR4nEMXC6Oxq2sF6fOnVK9913n7p166aMjAw99NBDevLJJyVlz76YI+fepNz3G23evDnfPm5m25Kgcu1glSpb/oa2KVeunJo2bary5fPeztfXV76+vgUxvBLjzJkz6tevn6ZMmSJ/f3/FxsaqTZs2Dm2GDBkiHx8fnTx5UklJSdq8ebPOnTunMmXKWPdL7tixQwkJCZKkbdu2afv27Q7vkZycbL1moqH/H+cCpyuKcv0PP/zQui/4an24OgIe4ES/pibr/KnsX0R79+61frHnlB5nZGTowIED+uWXX6xvpXKXl+V499138+1j9+7d1nORrtZHScUxcL4qAaFq9NhA68/nzp3TwoULdccdd+jLL7+0ZlrMPUPj2rVrJV05jXx+bmZboLCdPbJXGz+Mlp+fn3744Qe9//77SkxM1D333HNF29q1a2vVqlWqUaOGWrVqpX/84x/y9/fX2rVrrfK0Bg0aWJPWBAYGWqV/s2fPVtu2bTV9+nTr/WJjY9W8eXOHyXBKIs4Fzvfncn1JVrm+pGuW60uySu7zs3r16uvqw9UR8AAnuuVvVeXmnj2Bwa+//qqXXnrJmvxHyr7fIiAgIM/yMl9fX3l7e0vKvuqxZ8+ePPvw8/Oz/vN6tT5KKo5B8VC/bR/rYdo5Dh8+rEceecS61yj3PXITJkzQ0qVLtXHjRmvZ1WYPvJltgcLmVaac6j/SVydPntSWLVv0z3/+U2XLls23fUhIiJKTk7Vq1SqtWbNGycnJDmHQ3d1d8fHx1pW8nHvwevTooRUrVigzM9OhRDY2NlZdunQp9P0szjgXOF9RlOvnbne1PlwdAQ9wIk/vW1Q14I9v/mbMmKF27dpp2rRpKleunMaPHy83N7c8y8vc3NwcbibOr8SsXLlyatHijxK4/PooqTgGznfh7Al9M7qbvvvuOw0YMEDVq1e31q1bt05Tp06VlD1Zx6hRo+Tl5aWDBw+qQ4cODhN7/Dkg5nYz2wKF7Za/VVX5andaIeF63X333apfv36evz/c3d3VoEEDJli5TpwLnK8oyvXbtWt3XX24Ov7VA052X9+3rKnFJWnFihU6duyYxo4dq86dO0tyLC+Li4uzbpC/3hKz2bNnX7OPkoxj4Fy/xHyqk/t/UunSpTV69Ght2LDB4fP+5ptvrNfR0dE6e/as4uPjtXfvXlWqVElS9mffq1evq/ZzM9sCsD/OBc5VFOX6LVq00OjRo6/Zh6sj4AFOVqZ8ZX300UdXLI+MjNSSJUskZV9dyJlC/OTJk4qKilJcXJxV1iFdvcSsWrVq1+yjJOMYONfB+Ox7Ivz8/FSmTBlVr15dr732mrU+5z6JHGXKlFFwcLC2bt1qzSQ4fPhw6x4KSUpNTVVqauoVfV3PtgBKJs4FzlfY5fqSNHTo0Gv24eoIeICTJcV8qrZt2+rOO++0HiAsZU9j/cwzzygzM1Oenp5atGiRGjVqJEmaNm2awsLCrNIEHx8f64b6vLz33nvX7KMk4xg4l4dXdllazj0QktS2bVvrdV4PwE5MTFS/fv0kSa1atbJmD5SkBQsWqHr16vLz88tz4oirbQug5OJc4FxFUa5/7NgxNWvW7Jp9uDoCHuBElzPOK/6zd3Tx4kX16NFDU6dO1ZgxY6z1p06dsmrJAwIClJCQoAMHDighIUFvvvmm1a579+753ruRnp6uwYMHX1cfJRHHwPnuvC/72V0nTpxQbGyspOxnRUnZpTbDhg1zaL9u3TqFh4crLS1NUVFRWr58uTw8PKz18+bN06VLl3T58mV9+umnN7QtgJKJc4HzFUW5/nvvvacffvjhuvpwZQQ8SMr+Cz148GB17txZzz33nGbMmJHnZeqYmBgNGTJEERERmjx58g09P2fx4sUaPXr0FT8ffvhhQe6KSzmyY70yL2VPk5zzC+aVV15R7dq1rTZ/Lk/z9/dXo0aNNG/ePElSlSpVNHz4cGt9VlaWEhMTrQfbrlixQhcuXLihPkoSjoHz1W3ZXUH/iFTZsmXVsWNHtWnTRk888YQCAgL09ddfW1OIT5o0SY0aNdKIESM0dOhQJSUlaeLEiVc8IPvJJ5+Up6enPD091bVr1xvaFkDJxLnA+YqiXH/RokU31Ier4sE/JZwxWdrwwVDN2bxc9957r6Kjo/Xxxx/r+eef16RJkxQXF2c9xHb06NGKjo5Wz5491bx5c0VFRSk6Olrr16+/ajmCJGVmZur555/P8+GTuWupS5qc0jTJsTytTZs21jTLeZWnRUZGavv27fL29tasWbOsX2bGGIWGhiohIUFBQUGKj49X6dKl/1IfJQXHoHj4e/vntXHuW9qzZ49+/fVXzZw5U35+fg4zyjVu3Fg9evSQj4/PVd+rS5cueuCBByTJetD29W4LoGTiXOB8hVGu3717dxljNHv2bHXp0sU6BjfShyviCl4Jt3f9Ih3YvFxS9rceERERGjt2rKTsfzTjx4+XlP2NR3R0tCRp2LBhGjx4sEJCQpSenq727dvnGdxyW7NmTb5t+vbtW1C743KqBIRaz3354osvrGcS5dws3L59e4WEhFjtz5w5o379+mnKlCny9/dXbGys2rRpY63PeeaRJG3btk3bt2/XAw88YN1wfD19lDQcg+KjTJkyatiwocLCwlS9evUrpgsPCwu77oDm6+trhbsb3RZAycO5wPmKolz/6aefvqE+XBUBr4Q79vP31uucy9J33XWX9Q1UUlKSJGnhwoVWu8qVK0uSQkOznxdz+PBhLViw4Kr9zJkzR126dNGKFSscfr799lsFBgYW3A65GK/SZRUeNU333Xefvv32WzVt2lR169bVtm3b9OKLL2ru3Llyc3NTYmKinn76afn5+emHH37Q+++/r8TERIcH20pSgwYNrKupgYGBCgwM1K233qply5Zds4+SimMAAOBc4HxFUa4fGRmpN954L9GwGgAAIABJREFU45p9uDq33bt3G8nxmRIoWj1mJjqt74SF45W44n+Ssmd+Wrt2rQICAnTbbbcpIyNDM2fO1LPPPqtatWopOTlZkpScnKwaNWpYJZtS9k3Fs2fPzrOPCxcuqGrVqmrevLnatWunevXqqUmTJvr/2rv3qKrKPP7jH+QiSKSR/UgFNS+U9VMHNFveKBMTLVGcvOTdas1oCWQ6alrWTM7SMh1zvNTKnC6WOYVhmqmYGBBaVlqDFxhTw1BkkBFxJEXO8/uD39njCXVKORzP9v1ay7X22fs5nOfsrzyHz9nP3js4OLhW3uMv4ckaSNKKR29XQUGB8vPzFRQUpNatW7vsnx9//FFlZWVq0eJ/3wjX4XBo7969atOmTbUb3F7qNTyNGnje1VCDa5mn979EDTxdg2t9/0tXRw34LPBsDV4bfos1Xb9p06bVput//vnnatOmzS+aleGcPXb+jA6p6m/TS72Gt3IemOEcvGtck7YxVsArKSlRly5ddN999+nMmTPq1auXBg8eLKnqyk9Ox48fV7NmzVzuM3Kpqz6tXbtWZWVlWr9+vdavXy+p6kTkmTNn6ne/+x0XOfj/mjRpoiZNmlxwW3h4+C/+OXXq1LHu0fNrXgPUAADAZ4GnOafrX8yvOcr282D3S1/D2zFF8xr3fyI76jcDJ1qPy8rKlJKSoiZNmig1NVUhISGSXI/wfvbZZ5Kq5io7nb/8c++88061dUVFRZowYYIGDhwoY8wVvw8AAAAABDxIuj3u4Wo3hSwoKFCfPn2sWyWcf6XLBQsWaN26ddZJwZJcjub9XEJCgp599lk98sgj1o1BndatW6dXXnmlJt4GAAAAcM1jiuY1rry0WJ8tnqDjB/+h5ORkrV69WocPH5ZUdXWixYsXa+LEiRo6dKgOHDig5557Tvn5+erXr5/Lz/l5QDzfmDFjXB5/8cUXevLJJ5WdnS2p6h58zkvcAgA8p/2UTzz6+t++2Mejrw8AdsARvGvcP7eu1PGD/1BgYKBmz56tzz//3GU65saNG63l6dOnq7S0VN98842+//57NWzYUFLV9MxRo0b94te86667lJaWpu7du0uqOloIAAAA4MoR8K5x+d9sllR10nBQUJAiIiI0c+ZMa7vz1glOQUFBioqK0q5du1RcXCyp6v55ztsqSNKxY8d07NixS75uvXr19OSTT0q69NE/AAAAAL8cUzSvcb7+VZf4PXHihLUuLi7OWo6Kiqr2nD179lhTKnv27KlnnnnG2vb+++9r+PDhMsZoxYoVGjJkiLZu3ao1a9Zo4MCB1lE7SQoMDJQkPfDAAzX7pgAA8EKeniIrMU0WsAOO4F3jWnTpL0kqLi5WZmamJCkrK0tS1dTLadOmubTPyMhQjx49VFRUpKSkJH3yySfy9fW1tr/33nuqqKjQuXPntHLlSklSUlKSFixYoJiYGI0aNUr5+fnavXu3Zs2apXnz5ikmJqY23ioAAABgewS8a9yt9w5X+wGJCg4OVnx8vHr37q1BgwYpMjJS69evt+41snDhQv3mN7/RM888oylTpigvL08vv/xytXvYDR48WH5+fvLz89PQoUMlSZMnT7buQ/L222+rRYsWGjZsmMaPH29N0wQAAABw5ZiiCf3f+8dp27svaP/+/Tp58qSWLVum8PBw+fj4WG06dOigESNGKDQ09JI/a8iQIbr77rsl/ffmkqNGjdLIkSO1c+dOnTlzRu3atVNwcLD73hAAAABwjSLgQVLVxVPatm170e3OI3m/hDPYnc/Hx0fR0dGX1TcAAAAAvwxTNAEAAADAJjiCBwC4Knj6CoJcPRAAYAccwQMAAAAAmyDgAQAAAIBNEPAAAAAAwCY4Bw+4Cnj63COJ8488XYNrff8DwNWAzwLPowZXjiN4AAAAAGATBDwAAAAAsAkCHgAAAADYBAEPAAAAAGyCgAcAAAAANkHAAwAAAACbIOABAAAAgE0Q8AAAAADAJrjROSRxU0kAAADADjiCBwAAAAA2QcADAAAAAJsg4AEAAACATRDwAAAAAMAmCHgAAAAAYBMEPAAAAACwCQIeAAAAANiEbe6Dt3HjRqWlpenQoUO68cYbFR0drbFjxyogIMCl3datW/Xxxx8rLy9PsbGx6t+/v5o2beqhXgMAAABAzfH6I3gOh0NDhw5VXFycMjMzNXLkSP3rX//SuHHjFBUVpdLSUqvt7Nmz1aNHDx07dkzdu3dXUlKS7rjjDn377bcefAcAAAAAUDO8PuAtX75cq1atkiTNmDFD/fv319y5cyVJe/bs0fz58yVJq1ev1vTp0yVJ06ZN0+TJkxUdHa1Tp07p/vvvV2FhoWfeAAAAAADUEK8PeJs3b7aWc3JyJEktW7ZUWFiYJCkvL0+SlJKSYrW76aabJEkdO3aUJBUUFOj999+vlf4CAAAAgLt4fcBr3ry5tTxv3jzl5OTo7NmzOnHihCQpNjZWkpSdnW21O336dLXnfvHFF+7vLAAAAAC4kdcHvL59+1rLJSUl6tKli4YNG6YzZ86oV69eGjx4sCTp1KlTVrvjx49Lkpo1a2at27FjRy31GAAAAADcw+sDXkxMjGbPnm09LisrU0pKipo0aaLU1FSFhIRIkiIjI602n332mSTJz++/FxE9fxkAAAAAvJEtUs2UKVO0adMmpaenW+sKCgrUp08fpaWlKSAgQImJidY0zQULFqh169batm2b1f78o3m/1tGjRy+/85DEPrwaUAPPYv97HjXwPGrgedTAs9j/nnelNWjUqFEN9eTyef0RvMLCQnXu3Fnp6elKTk5WRESEtS0jI0OLFy+WJA0dOlR//vOf5e/vr/z8fPXr108LFiyw2vbo0aPW+w4AAAAANcnrj+AtWbJEX375pQIDAzV79mxNmjRJsbGx1tUzN27cqIkTJ0qSpk+frokTJ2rfvn2qX7++7rrrLhUXF8vPz0+jRo267D5ceVL/9xU+3/t5/tsOakANPMvz+1+iBp6uwbW9/yVqcDWgBp7l+f0vUYOroQZXxuuP4K1evVqSFB4erqCgIEVERGjmzJnWduetE5yCgoIUFRWlXbt2qbi4WFLV/fOct1UAAAAAAG/l9QEvMDBQkqzbIkhSXFyctRwVFVXtOXv27NH48eMlST179tQzzzzj5l4CAAAAgPt5fcAbPXq0JKm4uFiZmZmSpKysLElVV8acNm2aS/uMjAz16NFDRUVFSkpK0ieffCJfX9/a7TQAAAAAuIHXn4OXmJio0tJSzZkzR/Hx8erUqZPS09MVGRmpRYsWqWvXrpKkhQsXavny5apfv76mTJmi+Ph4tW7d2sO9BwAAAICa4/UBT5KefvppTZo0Sfv379fJkye1bNkyhYeHy8fHx2rToUMHjRgxQqGhoR7sKQAAAAC4jy0CnlR18ZS2bdtedLvzSB4AAAAA2JXXn4MHAAAAAKhCwAMAAAAAmyDgAQAAAIBNEPAAAAAAwCYIeAAAAABgEwQ8AAAAALAJAh4AAAAA2AQBDwAAAABsgoAHAAAAADZBwAMAAAAAmyDgAQAAAIBNEPAAAAAAwCYIeAAAAABgEwQ8AAAAALAJAh4AAAAA2AQBDwAAAABsgoAHAAAAADZBwAMAAAAAmyDgAQAAAIBNEPAAAAAAwCYIeAAAAABgEwQ8AAAAALAJAh4AAAAA2AQBDwAAAABsgoAHAAAAADZBwAMAAAAAmyDgAQAAAIBNEPAAAAAAwCYIeAAAAABgEwQ8AAAAALAJAh4AAAAA2AQBDwAAAABsgoAHAAAAADZBwAMAAAAAmyDgAQAAAIBNEPAAAAAAwCYIeAAAAABgEwQ8AAAAALAJAh4AAAAA2AQBDwAAAABsgoAHAAAAADZBwAMAAAAAmyDgAQAAAIBNEPAAAAAAwCYIeAAAAABgEwQ8AAAAALAJAh4AAAAA2AQBDwAAAABsws/THagpGzduVFpamg4dOqQbb7xR0dHRGjt2rAICAiRJFRUVeumlly75M5KTk1WvXr3a6C4AAAAA1DivD3gOh0PDhg3TqlWr1KlTJ02fPl1vvvmmxo0bp4ULFyo7O1v169fXzp07NX369Iv+nPDwcE2bNq0Wew4AAAAANcvrp2guX75cq1atkiTNmDFD/fv319y5cyVJe/bs0fz58yVJn3/++SV/zm9/+1v5+Pi4t7MAAAAA4EZefwRv8+bN1nJOTo7i4+PVsmVLhYWF6dixY8rLy5MkZWVlqVWrVho+fLiaNm1qTcWcN2+evvrqKz344IMe6T8AAAAA1BSvD3jNmze3lufNm6f4+HhFRkbqxIkTkqTY2FhJUmVlpTIzM3XzzTdb7SsrK5WcnKzGjRura9eutdpvAAAAAKhpXj9Fs2/fvtZySUmJunTpomHDhunMmTPq1auXBg8eLElKTU11CXeSlJGRoaKiIiUkJDA9EwAAAIDX8/qAFxMTo9mzZ1uPy8rKlJKSoiZNmig1NVUhISEXfe4HH3wgSRo0aJDb+wkAAAAA7ub1UzQlacqUKdq0aZPS09OtdQUFBerTp4/S0tKsWyWcz+FwaPXq1QoLC1P37t2v6PWPHj16Rc8H+/BqQA08i/3vedTA86iB51EDz2L/e96V1qBRo0Y11JPL5/VH8AoLC9W5c2elp6crOTlZERER1raMjAwtXrz4gs/LyspSYWGhEhISVKeO1+8GAAAAAPD+I3hLlizRl19+qcDAQM2ePVuTJk1SbGysdfXMjRs3auLEidWe55yeWRNXz7zypP7vK+6Dt/P8tx3UgBp4luf3v0QNPF2Da3v/S9TgakANPMvz+1+iBldDDa6M1x+6Wr16taSqG5UHBQUpIiJCM2fOtLbn5ORUe44xRikpKWrYsKHuueee2uoqAAAAALiV1we8wMBASbJuiyBJcXFx1nJUVFS152RnZ+vIkSMaMGCAfH193d9JAAAAAKgFXh/wRo8eLUkqLi5WZmampKrz6yTJz89P06ZNq/acmpyeCQAAAABXC68/By8xMVGlpaWaM2eO4uPj1alTJ6WnpysyMlKLFi2qdgNzY4w++OADhYaG6t577/VQrwEAAACg5nl9wJOkp59+WpMmTdL+/ft18uRJLVu2TOHh4Re8ebkxRsuXL1doaKj8/f090FsAAAAAcA9bBDxJCgoKUtu2bf9nuzp16qhXr1610CMAAAAAqF1efw4eAAAAAKAKAQ8AAAAAbIKABwAAAAA2QcADAAAAAJsg4AEAAACATRDwAAAAAMAmCHgAAAAAYBMEPAAAAACwCQIeAAAAANgEAQ8AAAAAbIKABwAAAAA2QcADAAAAAJsg4AEAAACATRDwAAAAAMAmCHgAAAAAYBMEPAAAAACwCQIeAAAAANgEAQ8AAAAAbIKABwAAAAA2QcADAAAAAJsg4AEAAACATRDwAAAAAMAmCHgAAAAAYBMEPAAAAACwCQIeAAAAANgEAQ8AAAAAbIKABwAAAAA2QcADAAAAAJsg4AEAAACATRDwAAAAAMAmCHgAAAAAYBMEPAAAAACwCQIeAAAAANgEAQ8AAAAAbIKABwAAAAA2QcADAAAAAJsg4AEAAACATRDwAAAAAMAmCHgAAAAAYBMEPAAAAACwCQIeAAAAANgEAQ8AAAAAbIKABwAAAAA2QcADAAAAAJsg4AEAAACATRDwAAAAAMAmCHgAAAAAYBMEPAAAAACwCT9Pd6CmbNy4UWlpaTp06JBuvPFGRUdHa+zYsQoICHBpt2bNGu3Zs6fa88PCwvTwww//6tfNy8uTJEVGRl5ex3HFqIHnUQPPYv97HjXwPGrgedTAs9j/nne11MDrA57D4dCwYcO0atUqderUSdOnT9ebb76pcePGaeHChcrOzlb9+vUlSZWVlRo3bpwKCwur/ZzExMTa7joAAAAA1Civn6K5fPlyrVq1SpI0Y8YM9e/fX3PnzpUk7dmzR/Pnz7fabtmy5YLhTpIeffRR93cWAAAAANzI64/gbd682VrOyclRfHy8WrZsqbCwMB07dsw6VCpJ77zzjoYMGaKxY8e6/Ax/f3+1a9eu1voMAAAAAO7g9Ufwmjdvbi3PmzdPOTk5Onv2rE6cOCFJio2NlSSVl5dr9erVKisr0/79++Xv769u3bqpd+/euvfeez3RdQAAAACoUV4f8Pr27Wstl5SUqEuXLho2bJjOnDmjXr16afDgwZKktWvXqqysTOvXr9eECRPUs2dPtWjRQosXL1ZFRYWnug8AAAAANcbrA15MTIxmz55tPS4rK1NKSoqaNGmi1NRUhYSESKqanvlzRUVFmjBhggYOHChjTK31GQAAAADcwSc3N9dInr+c55VwOByKjY1Venq6y/qYmBilpaUpICBAb7zxhg4dOqQff/xRX3/9tXbt2uXSdsmSJRo/fvyvfu3zz/EDAAAAcG3zVK5y5hKvP4JXWFiozp07Kz09XcnJyYqIiLC2ZWRkaPHixZKkMWPG6LnnntOyZcu0c+dObd++XV26dLHabty48bJe35uDMQAAAICaczVkA68/gjdz5kw9//zzCgwMVElJiYqLixUbG2sl2N69e2vDhg0XfO7p06cVFxenzMxMdezYUTt27KjNrgMAAABAjbDNEbzVq1dLksLDwxUUFKSIiAjNnDnT2p6Tk3PR59arV09PPvmkJKlHjx7u7SgAAAAAuJnXB7zAwEBJsm6LIElxcXHWclRUlCRp69atmjhxojIzMy/4/AceeMDdXQUAAAAAt/L6gDd69GhJUnFxsRXesrKyJEl+fn6aNm2aJCkpKUkLFixQTEyMRo0apfz8fO3evVuzZs3SvHnzFBMT45k3AAAAAAA1xOvPwZOkWbNmac6cOfL391enTp2Unp6uW265RYsWLVKvXr0kSW+99ZamTp2qwsJCSZKvr6/uuOMOTZkyRcOHD/dk9wEAAADgijjPwbNFwJOk8vJy7d+/XydPnlTTpk0VHh4uHx8flzbGGO3cuVNnzpxRu3btFBwc7KHeAgAAAEDNcQY8Pw/3o8YEBQWpbdu2l2zj4+Oj6OjoWuoRAAAAANQurz8HDwAAAABQhYAHAAAAADZBwAMAAAAAmyDgAQAAAIBNEPAAAAAAwCYIeAAAAABgEwQ8AAAAALAJAh4AAAAA2AQBDwAAAABsws/THUDtKSkp0ZIlSxQQEKApU6ZU226MUVZWlt566y35+Pho5MiR6tatm3x8fDzQW3v56KOPlJKSopKSEnXt2lXDhg1T06ZNq7U7fvy4Vq5cqbS0NN13330aMmSIGjZs6IEe288333yj1157TQcOHFDTpk01fvx4RUdHV2tHDWrHvHnztG7dOn344Ydq0KCBtZ5xyH1KSkr06quvXnDbgw8+qNatW0uiBrXlhx9+UEpKivLy8lReXq433njD2seMQzWvoqJCL7300iXbJCcnq169epKogbuUlJRo2bJl2rt3r06fPq1bbrlFw4YNU7t27VzaMQ5dodzcXJObm2tgXwcPHjSJiYkmODjYSDKjRo26YLvExEQjyTz99NPmqaeeMpLM448/Xsu9tZ+kpCQjyeVf48aNq/3eHTp0yISEhJjmzZubjz76yLRo0cKEhISYAwcOeKjn9vHXv/7V+Pj4uNTA19fXbNmyxaUdNagdn376qalTp46RZI4ePeqyjXHIfRYvXlxtLJJk/Pz8TGFhodWOGrjX4cOHTf/+/U2dOnVMp06dzBtvvGFOnz5tbWccco8vvvjigv//nf/Cw8ONw+EwxlADd8nMzDQ33HCDkWRefPFFs3z5ctOgQQNTp04d88orr7i0ZRy6PM5cR8CzuSlTpphbb73V+Pn5WYPYhQJeRkaG8fHxMcHBwaa8vNz89NNPxtfX10gyGzZs8EDP7WHdunVGkrnhhhuMv7+/y4dJ3759XdrGxsYaSeZPf/qTMcaYGTNmGEmmW7duprKy0hPdt4WsrCxz/fXXm4cfftgMGDDA5Xehd+/eLm2pgfsdO3bMNGrUyKrB+QGPcci9unTpcsE/bBMSEqw21MC9tmzZYho2bGgkmd///vdWoDgf45B7zJ8//5IBLzk52WpLDWqew+EwERERRpKJioqy1o8YMcJIMnXr1jXl5eXGGMahK+HMdZyDZ3PPP/+89u3bp6SkpEu2+8Mf/iBjjMLCwhQYGKi6desqLCxMkvTcc8/VQk/tadGiRVq0aJGKi4t16NAh3Xfffda2LVu2yBgjSdqwYYM2b94sSWrevLkkqVmzZpKkrKwspaWl1W7HbeSdd97Rpk2b9Prrr+vDDz/UCy+8YG37z3/+Yy1TA/czxmjUqFE6evToBbczDrnPwYMHtWPHDqWmpmrDhg0u/xYsWGC1owbu8/3332vAgAEqLi7WQw89pKVLl1abbsY45D5ZWVlq1aqVnn32Wb3++utauXKlVq5cqY4dO0qqmqYsUQN3yc3N1eHDhyVV/S789NNPkqSuXbtKks6cOaMffvhBEuNQTeAcPJsLCAiQJDVu3PiibYwx+sc//iFJCgwMtNbXrVtXkrR792439tDeXnjhBWteeePGjTV16lRt2rRJktS6dWvrw/3bb7+1nuOsgXP/S1JOTo569+5dW922lSVLlrg87tmzp7WckJBgLVMD95s7d67y8/PVokULHThwwGUb45B7vfvuuwoODtbOnTt1++23q3379rr11ltd2lAD9xoxYoROnjwpSXr22WcveC4R45D7VFZWKjMzUzfffLPLuuTkZDVu3NgKGtTAPcLDw+Xn56dz587p5MmTeuKJJ7R06VIVFRVJkiIiIhQZGck4VEM4gneNqFPn4qU+fPiwTp8+LUny8/tv5nc+p6yszPrWBb/Oz08adn4DJcnlaF5ubq617KzB+TXbs2ePu7p4zXn77bclSWPGjNHEiROt9dTAvbZv365Zs2Zp1apVCg4Orradcci93n33XZ04cUJ//OMfNWTIEN12220aMGCA9u7da7WhBu6zfft2bd++XZIUFBSk1157TSNHjtScOXN04sQJqx3jkPukpqa6hDtJysjIUFFRkRISEqzATQ3c47rrrlNMTIz1+NVXX1Xfvn21dOlSXXfddZo/f758fHwYh2oIAQ8ug5mvr+8F25z/RwAu35YtWyRV7eehQ4da6/9XDdj/V27btm0aNGiQ5s2bJ0lat26dVQ+JGrjTiRMn9NBDD+nFF19U27ZtL9iGcch9du7cecE/StesWaP27dsrOztbEjVwpxUrVljLISEh2rhxo1asWKGnnnpK7du3V2FhoSTGodr2wQcfSJIGDRpkraMG7rNixQrdcsst1uMNGzaosLBQc+fOtabIMg7VDAIedOTIEWv5YpefPf8bRlw+5/TMGTNmWPP+pf9dg3//+9/u75zNFRUV6eDBg9bj4uJi9evXT+Xl5ZKogTs9+uij6tChg8aNG3fRNoxD7hMUFKS5c+dq4sSJGjhwoMsR1IqKCg0aNEjnzp2jBm60b98+a/nFF1/Ud999Z33Jl5+fr5kzZ0piHKpNDodDq1evVlhYmLp3726tpwbu06hRI/3tb3+rtj4xMVFr166VxGdBTSHgQeHh4Rdc73A4rGXnCca4fFu3btXHH3+sHj16WB/mTheqwfn733miNy5f//799dVXX+nll1+2vhUsLy+3juJRA/d47bXXlJqaqkceecSapnbq1Clr+44dO1RaWso45Ea33XabJk+erPnz5yslJUVHjhzRSy+9JH9/f0lVf1Dl5ORQAzc6f0pZUFCQfHx8NHr0aGvd1q1bJTEO1aasrCwVFhYqISHBZQomNXCfJUuWKC4uTi1atNBjjz1mrT937pzGjBmjyspKxqEaQsCDWrZsaS1XVFRYy+f/Mv38ZHz8OqdOndLDDz+sjh07as2aNVbAOHPmjKQL14D97x5JSUmaMGGC9dh5sQ9q4B7btm1TZWWl+vbtq86dO6tz584uR1Lj4+P12WefMQ7Vouuvv16TJk1SSkqK9Q15QUEBNXCjiIgIa9l59KFVq1bWOudRC8ah2uOcnumcGuhEDdzj1KlTmjx5sn766SeNGDFCixcv1pw5c6ztJSUl2rFjB+NQDSHgQREREdaUnbNnz1rrKysrJUk33XSTGjRo4JG+2cUjjzyi6667Ths2bFBISIgkae3atZo6daqkqm/YnZw1cO5/SYqMjKzF3tpfYmKitRwdHS2JGrjLxabY/LwN41Dt69evn9q1ayc/Pz9169aNGrjRnXfeaS07bxMSGhpqrXNekItxqHYYY5SSkqKGDRvqnnvucdlGDdxjw4YN1ikRzn04depUly86cnJyGIdqCAHvGnHu3Dlr+fyBSqo6iXX48OGSqs5LcrYpLS2VVDW1DZdvzpw5+vvf/67S0lLFxcXpzjvv1G233aaEhAS1b99ekjR8+HDrqJ6zBiUlJZIkf39/9enTxzOd93IOh0MvvPCC/vKXv7j8DjhvH9KyZUvrXEhq4B6vvvqqysvLXf7dcccd1vaDBw/qgQceYBxyo9OnT2vmzJmaO3euy/RYqeoy5N27d1f9+vWpgRvdfffd1vJ3330nyfWzuHPnzpIYh2pLdna2jhw5ogEDBlS7kAc1cI/zb3lw/jl0599yIioqinGopjjveA57e+yxx4wkI8l079692vZ//vOfJjQ01Egyubm5Ztu2bUaSCQoKMj/88IMHemwP69evN3Xq1LH2/c//7dy502qbmJhoJJmHHnrIGGNM7969jSTz+OOPe6r7Xi87O9va1127djWbN2825eXlJjEx0dStW9ds377dpT01qB1t27a16nL06FFrPeOQe6SkpFj7Ozw83Lz77rvm1KlTZunSpeb22283P/74o9WWGrjP+PHjjSTj7+9vjh07ZtLS0owk06xZM1NQUGC1YxxyvyeeeMJIMhs2bLjgdmpQ806ePGmaNWtmJJmePXsah8NhHA6HiY6ONpLM/fffbxwOhzGGcehKOHMdAc/m3n6aA0CZAAAC7UlEQVT7bdO7d+9qIaNbt27mvffec2n79ddfm2bNmpnw8HATFhZmmjZtar788ksP9dz7nThxwjRo0OCi4S4gIMCcPXvWal9ZWWnGjRtnAgMDTfv27Y2fn5957LHHTEVFhQffhXerqKgw3bp1c9nvfn5+JjY29oLjHjWoHe3atbPqcezYMZdtjEM179SpU+bee+81vr6+1n4PDQ01Q4YMMcePH6/Wnhq4R0VFhXn00UdNgwYNTKtWrcwNN9xgOnbsaPbu3evSjnHIvRwOhwkPDzehoaEun8HnowbukZOTY7p06WIkmU6dOpnWrVsbX19f8/jjj5vS0lKXtoxDl8eZ63xyc3ONxJxi/Ne+ffvkcDjUpk2bX3T+DGrWqVOnlJOTozZt2qh+/fqe7o4t5OXl6fDhwwoNDdWtt96qevXqXbI9NfA8xqGaV1xcrN27d6tx48Zq3br1/2xPDdzj3Llz2rVrl5o1a6abbrrpou0Yh9zD4XDo008/VWhoqDp06HDJttTAPQoKCpSfn6+goCC1bt3a5dYtP8c49Ovk5eVJkgh4AAAAAODlnAGPi6wAAAAAgE0Q8AAAAADAJgh4AAAAAGATBDwAAAAAsAkCHgAAAADYBAEPAAAAAGyCgAcAAAAANkHAAwAAAACbIOABAAAAgE0Q8AAAAADAJgh4AAAAAGATBDwAAAAAsAkCHgAAAADYBAEPAAAAAGyCgAcAAAAANkHAAwAAAACbIOABAAAAgE0Q8AAAAADAJgh4AAAAAGATBDwAAAAAsAkCHgAAAADYBAEPAAAAAGyCgAcAAAAANkHAAwAAAACbIOABAAAAgE0Q8AAAAADAJgh4AAAAAGATBDwAAAAAsAkCHgAAAADYBAEPAAAAAGyCgAcAAAAANkHAAwAAAACbIOABAAAAgE0Q8AAAAADAJgh4AAAAAGATBDwAAAAAsAkCHgAAAADYhJ9zIS8vz5P9AAAAAABcIR9Jys3NNZ7uCAAAAADgyvw/SPANCirnkdUAAAAASUVORK5CYII=;" vertex="1" parent="1">
          <mxGeometry width="479.55" height="290" as="geometry" />
        </mxCell>
        <mxCell id="5uwCVwZwQJ1VnvGeNQBW-3" value="" style="shape=image;verticalLabelPosition=bottom;labelBackgroundColor=default;verticalAlign=top;aspect=fixed;imageAspect=0;image=data:image/png,iVBORw0KGgoAAAANSUhEUgAAA3YAAAIbCAYAAACnsAy9AAAACXBIWXMAAAsTAAALEwEAmpwYAAAgAElEQVR4nOzdd3gVVeL/8U8aJAKCEASRXkJbSpCiICgKSlOagoSOWQSkqFgQFXUtKE0EFBRXcWnuLr34pYMQISgSwAAmgpLQAwklkJCEm/P7g19miQmQei9z8349Tx4nZ87MnJnJxfncOWfGQ5IiIiKMAAAAAAC2U7NmTQ8PQh0AAAAA2Jt32kRAQIAr2wEAAAAAyKbIyEhJkqeL2wEAAAAAyCWCHQAAAADYHMEOAAAAAGyOYAcAAAAANkewAwAAAACbI9gBAAAAgM0R7AAAAADA5gh2AAAAAGBzBDsAAAAAsDmCHQAAAADYHMEOAAAAAGyOYAcAAAAANkewAwAAAACbI9gBAAAAgM0R7AAAAADA5rxd3QAUHBcTr+pcwtUs1y9zZyH5+mT87iEmJkYJCQkZyosUKaLSpUvnqo23i7Nnz+ry5cuqVKmSq5sCAAAAGyDYwWm2HbqghTtPZ7n+Gx0rqfY9RTKU79ixQ7Nnz9bq1autsm7duik4OFjt27fPdrvWrFmjdu3aZXu5/Fz/J598oqNHj+pf//pXPrUKAAAA7sQjIiLCSFJAQICr2wI3t/rX2DwJdpJ09OhRVaxY0fr9/PnzKl68eLbbtHXrVrVv316XL1/O9rL5tf7Lly+rYsWKunTpko4cOaJ77rknX9oGAAAA+4uMjJTEGDvYVLFixW76e1bs2bNHzzzzjBwOR141K0/W/8033yguLk7Jycn67LPP8qVtAAAAcC8EO7iVJUuWqHXr1tbPhg0b9MADD6hUqVLq06ePkpKSJEkLFixQ8+bNdfLkSSUlJal169bq2rWrtZ6FCxfqvvvuU7ly5dS2bVsdPnw4T9d/I6mpqZoyZYr1+6xZs5SYmJhp3fPnz2vQoEGqVq2aqlWrptGjR+vkyZNZng8AAAD3QbCDW+nWrZu8vLy0ZcsWbdmyRQMGDFClSpUUFxen+fPna/r06ZKkEiVKqEaNGpIkT09P9e3bVz169JAkffnllwoKClKdOnUUFham0NBQPfLII0pKSsqT9d/MsmXL9Mgjj6hx48aSpNjYWM2dOzdDvcuXL+vhhx/WN998o9WrV6ts2bKaMmWKxo0bl6X5AAAAcC8EO7idypUrW9NLly5NF4x+/vlnSVKHDh2sJ076+Pho0KBB6tWrly5duqQ33nhDktSuXTuVKVNGDRs2VHR0tL777rtcr/9WJk+erOHDh2vo0KFW2dSpU2WMSVdv9uzZ2rt3rypXrqxatWrpqaeekiRt2LAhS/MBAADgXngqJtyOp+f/vq+oXr26fHx8VKhQISUnJ+vKlSs3XXbPnj06e/asJCkqKkpz587VuXPnJEl79+7N9fpvZseOHfL09FTDhg1Vs2ZNvfzyyzp37pwOHjyotWvXpnuy5tKlS63tS9Kzzz6r1NRUNWvWLEvzAQAA4F4IdigQPDw8JF0bw3YzaWPpJGnfvn3y9PRUnz59JEn16tXL9fpvZvLkySpfvrz1ioPq1atbdwA/+eSTdMHuzz//lCQdOXJEknTnnXdq9OjRWZ4PAAAA90KwA65ToUIFa7ps2bIaM2aMU7Z7+PBh7dy5U71799aBAwckSa1atdKuXbtkjNG6deu0f/9+1a1bV9L/ngL6559/6sKFCxle9XCr+QAAAHAvjLGDLf11zNlff8+KtC6V17+OoHnz5vL19ZV0rTtj2npPnDih2bNn53r9NzJ58mQNHjxYH330kfUzadIktW3b1qpz/dMy//a3v1nrfvPNN63ygwcPKiEh4ZbzAQAA4F4IdrCluLi4dL+njYP763RsbKwSExOt1xDExsZa80qXLi1Junr1qlauXKn+/fvL19dXDz74oCQpOjpaTZo00dSpU9WhQwerK2Zu1p+ZiIgIffPNN3rggQcyzAsODram586dq0OHDkmSXnnlFav8888/17BhwzRu3Dg9//zz8vDwuOV8AAAAuBevESNGvCNJpUqVcnFT4O48JJUq6qPa9xTJ8k+Rwl4Z1vPll19qzJgx6d7J9sMPP6hQoUKKjo7WhAkTlJycLEk6deqUfvzxR2us2pkzZ1ShQgU1bNhQgYGB2rRpk06fPq2wsDB9+umnuvvuu9WmTRtt2bJFJ0+e1MmTJ7V//369+eab6tixo1asWJHr9V9v1apVateunRISEvTTTz/Jw8NDTZs2lSStWLFCU6ZM0dGjRyVdG7+3dOlSNWnSRA888ICqV6+utWvXKjk5Wbt375YxRosWLVLx4sVVrly5m84HAACAe0i7seARERFhJCkgIMClDQJc5fz58ypRokSG8mPHjun8+fNWt8a8Xn9eSE5O1v79+1W+fHnrDmF25gMAAMDeIiMjJRHsAAAAAMC20oIdY+wAAAAAwOYIdgAAAABgcwQ7AAAAALA5gh0AAAAA2BzBDgAAAABsjmAHAAAAADbn7eoGADmVmpqqnTt3KjIyUqVKldJDDz2kokWL6qefflKzZs0UExOjhIQESZK3t7fKly+fp9tPSUnR8ePHs1S3cuXKGcoOHDggY4zq1q2bp+0CAABAwUOwg9P8NzRaX248nOX6k/oEqkGlzF/sfezYMT399NP6/fff1aVLFyUmJqpfv34KDAxUrVq11KxZM61cuVLPP/+8kpKSVLJkScXGxma7zWvWrFG7du0ynXfx4kUtWLBAU6dO1ZkzZyRJ99xzj6pUqaIrV67o8OHDunDhgiTp3Llz1kvKt27dqokTJ2r16tUaP348wQ4AAAC5RrCD0yQkORRz4UqW66dcTb3hvD59+ig0NFS7du3SfffdJ0kKCwtTixYtVKVKFUnSs88+q5kzZ+qXX37JUXu3bt2q7t276/Lly5nOL1WqlMaOHatTp05p+vTpkqRevXpp8uTJkqRLly7pgw8+0EcffSRJ2rt3r0aMGKHt27fL4XDkqE0AAABAZhhjB9s5ffq0fvjhB0lSVFSUVR4YGKgxY8YoOTnZKrvzzjtztI09e/bomWeeyVIAK1asWKblR44c0fjx463gWatWLW3cuFGzZs3KUZsAAACAGyHYwXaKFCkib+9rN5ufeuopDRw4UMeOHZMkvfrqq3rmmWduuY6vvvpKTZo0kb+/vx5//HF9++231rwFCxaoefPmOnnypJKSktS6dWt17do1W21MSkrSyJEjJUmrVq1S8eLFVbhwYfn4+Khs2bLZWhcAAABwKwQ72E7RokXVtm1bSZIxRnPmzFGNGjX0zjvvSJI6dOhw0+WnTJmiv//97/Lw8NCxY8fkcDg0YMAA/etf/5IklShRQjVq1JAkeXp6qm/fvurRo0e22vjmm28qPj5eklS2bFl5eHhka3kAAAAgOwh2sKVvv/1W1apVs36/cuWK3n33XTVs2DBd98y/On/+vP7xj39Ikp588kn5+vqqe/fukqS///3vunTpkjp06KBKlSpJknx8fDRo0CD16tUrS+2aO3euSpUqpUmTJuV01wAAAIBsI9jBlkqXLq1du3YpODhYnp7/+zOOiIhQz549b7jc9u3brSdVpr3+IO1plcnJydq9e3eu2tW+fXuedAkAAACnI9jBdk6fPq3NmzerRIkSmj17tsLCwtSyZUtr/s6dO2941+6PP/6wpn19fSUpXTDcu3dvrtrm7++vwYMHa+XKlenWCwAAAOQnrjxhO2fOnLFeKSBJ9evX19atW/XWW29ZZSEhIZkuW7JkSWvaGCPp2ovG0xQvXjxP2lilShXVrl07T9YFAAAA3ArBDra0bt067du3L13Zu+++a716oGbNmpkuFxgYaE2ndclM+68kNWjQQNL/7uJl5XUHaQHxr9NfffVVpvVTU1MznQYAAAByimAHW0pJSVGPHj0UGRlplYWGhio+Pl6PPvqo9e64c+fOSZLi4+OVnJys2rVrq0uXLpJkvbh8z549kqTHH3/cCnalS5eWJF29elUrV65U//79b9iWuLg4azpte5KsVzL81dmzZzNdFgAAAMipzK88gXxwV9FCqnlP5i/zzoxfYa8bzitbtqxq1aqlFi1aqEWLFkpOTtbGjRvVq1cvTZs2TR4eHvrwww8VHh4u6VoQHDhwoObPn685c+aoX79++vbbb3X8+HFt3LhRTz75pObOnWutf9y4cfr555+1d+9evfrqq1q0aFGGNpw6dUpvvfWWFixYYJUtXLhQXl5eGjdunCpWrJiu/pEjR/TBBx9o+fLlVtlnn32ms2fP6r333rMe5gIAAABkl0dERISRpICAAFe3BciShIQExcTEqHLlykpISNC+fft09epV1apVS/7+/llez7lz5/T7778rICDAejLmX50/f/6G8wAAAABXS+vBRrADAAAAAJtKC3aMsQMAAAAAmyPYAQAAAIDNEewAAAAAwOYIdgAAAABgcwQ7AAAAALA5gh0AAAAA2BzBDgAAAABsjmAHAAAAADZHsAMAAAAAmyPYAQAAAIDNEewAAAAAwOYIdgAAAABgcwQ7AAAAALA5gh0AAAAA2BzBDgAAAABsjmAHAAAAADZHsAMAAAAAmyPYAQAAAIDNEewAAAAAwOYIdgAAAABgcwQ7AAAAALA5gh0AAAAA2BzBDgAAAABsjmAHAAAAADZHsAMAAAAAmyPYAQAAAIDNEewAAAAAwOa8Xd0AAAAAV1u7dq3Wr1+vI0eOqFSpUmrUqJEGDhyoQoUKpau3e/duzZ49W3/88YcqVqyooUOHqlGjRtne3smTJ9W/f3916NBBL7zwQl7thm3FxcXpq6++0sGDB5WQkKAqVaooKChI9evXT1cvMTFRX3zxhbZt2yaHw6GWLVtqxIgRGc5TZnKzbEHgjM9AXn1+cAMREREmIiLCAAAA14iNjTUff/yxGTBggOnRo4d57bXXzN69ezPUS0hIMJ988onp1q2b6dy5s5k0aZJJSkrK0jZiYmLMG2+8YTp27GgGDx5sFi9enNe7YUsOh8P07NnTSDJNmzY1y5YtM127djWSTJ06dcz58+etutOnTzceHh5GkvXj5eVlNm3alO1tPvLII0aSee655/J6l2xn27Zt5q677jKSzIQJE8zXX39tSpQoYTw9Pc2sWbOseqdPnzZ16tRJd/wlmTZt2hiHw3HTbeRmWXfnrM9AXn1+kFFaniPYAQDgQs64qI2MjDSlSpXKsOzLL7+c37t325s9e7Z1PJYvX26MMebQoUNW2bhx44wxxoSEhJg777zTDBo0yHTp0sV4e3tbdR5//PFsbfO9996zli3owS41NdVUqFDBSDKBgYFWeZ8+fYwkU7hwYZOYmGiMMaZt27amadOmZuTIkaZy5crp/pZ37Nhx0+3kZll354zPQF5+fpBRWp5jjB0AAC5ijFFQUJDOnTunwMBAvfLKKxo4cKA6deqk1NRUjRo1SleuXJEk9enTR0WLFtXIkSNVuXJlax0bNmzQTz/9dNPtpG2jdOnS6conTZqkn3/+Oc/3y042bNhgTYeHh0uSqlWrpjJlykiSIiMjJUnz58/XunXr9M9//lNLly7Vxx9/bC13+fLlLG9v27Zteuutt/Ki6W4hIiJCR48elSQdPnzY+ntv0aKFJCkpKUlRUVHav3+/7r33Xu3YsUOffvqpfvvtt3R/zzc7B7lZtiBwxmcgrz4/uDmCHQAALuKMi9rQ0FAlJibq+PHjOnXqlBYtWiQPDw9r/vUXdQXR9SF58uTJCg8PV3Jyss6fPy9JatOmjSTp888/V7Nmzay6jz76qDXdtWvXLG0rNjZWQUFB6tixYx603D2UL19e3t7XHvlw8eJFvfDCCzLGKCYmRpJUoUIFBQQEqG7duvrmm2/k6Xnt0rVw4cLW56R06dJ68MEHb7iN3CxbEDjjM5AXnx/cGg9PAeByWR00f+bMGX366afas2eP7r33Xj3++OPq1q3bLde/efNmhYaG3nB+o0aN9Pjjj+d6P+wsq4PmV6xYocWLFysuLk4tWrRQUFCQKlasmKfbKEjSLmqvXr1qXdTOnDkzw0Wth4eHvvnmG2u5tAvTZcuW3fLCtGrVqtq4caP17Xv37t314IMPatu2bZKkmjVr5uMe3v46dOhg3T2Ii4tT8+bN9dhjjykpKUlt27ZVjx49Ml1u7ty5kqQBAwboxRdfzNK2Bg4cqFatWql79+5avXp13uyAzRUtWlStWrXSpk2bJElffPGFoqKitGfPHhUtWlRTpkxJ90VEmujoaP3www/y9fXVDz/8oMKFC2d5m7lZ1h058zOQF8viJhhjB8CVsjq+KDdjhNq3b59huet/Zs+enZ+7eFvLzqD5kSNHZjh25cqVu+X/Q7KzjYIo7SEaaT/t2rUzZcuWNUWLFjX//e9/M10mKirK3HXXXcbX19ccOHAg29t86qmnrAcXnDt3Lre7YHvjx4/P8Ld97733msuXL2eou337duv4STL+/v5mw4YNt9zGJ598YqpXr24uXrxoFi9ezBi765w4ccJUqVIlwzmYOXNmhroJCQlm/Pjx1rg8SaZ3796Znqu8XNbdOeMzkNtlcWM8PAW4zpo1a8zo0aNN9+7dzeDBg82sWbMyfdLc8uXLTb9+/UynTp3M+PHjTVRUVJa3sWzZMvPhhx9m+PnnP/+Zl7tiK9kZNN+4cWPj6elpSpcuneF/Pj/99NMNt+FwOEyJEiVuGOq8vLzMmTNn8n1fb1dZHTS/atUqI8ncddddxsfHJ90x7NChQ55so6By1kVtmtTUVOPv728kmSeffDIvd8W2HA6Had26dYZz0KpVqwz/L1i2bJm577770tXz8/MzCQkJN1z/rl27TLFixcwvv/xijDEEu0xs2bIlw/H39vY2K1asSFfvwoULJjg42BQrVixd3XfeeeeW28jNsu4uvz8DebEsboxgBxjn3K0wxpirV6+asmXLZhosRowYkZ+7eFs7ePCgdRzuvPNOK8TNnDnTKv/tt9/Mjh07TN26dc3JkyeNw+EwixYtSvfI5A8//PCG29i3b5/x8PAwQUFBZvr06WbevHlm4cKFZtKkSUaSefTRR521u7eltL9/SeaDDz6wysuUKWMkmWeeecYYY0y7du3MjBkzjMPhMMePHzePPfaYtZyvr69JTU3N9TYKMmdc1KbZtWuXkWTuvvtuc+rUqbzeFds5efKkadq0qZFkRo0alS40SzJTpkzJdLlPP/3UeHl5WfVWrVqVab2EhARTrVo188wzz5gdO3aYHTt2mPfff99a7sknnzS//vprfu7ibe+zzz4zvr6+pmrVqmbYsGHpjn/JkiXN1atXMywTHR1tAgMDrXqNGzfO8vZys6w7yu/PQF4vi4wIdreRrL6/KDfvIMrNu4/cmTPuVhhjzLp16254xyizc11QxMfHp3vk8XPPPWdSU1PNu+++aySZChUqmNTUVHP69OkMF6AtW7a0lrvZZ2Hx4sVmwoQJGcqnT59+w7siBclrr72W7gLq119/NUlJSaZw4cJGkvnqq6+MMSbD3+nGjRut5erVq5cn2yionHlRm5qaah555BHj7e1t1q5dm9e7YktvvfWW9QVFQkKCiY6ONgEBAdaxvdmj2EeNGmXVmzZtWqZ1oqKibvjvf9rP9T0WCpr4+Hjj5+eX7v+5H330Ubrjc6PXERw9etQUKVLE+qxkR26WdTf5/RnIj2WRntsFu6x2pbvdusM5Y3wRL+W8MWfcrTDGmP79+5uePXuaNWvWpPvZuHFjvu6fHeRkfJExuR8j1KpVK+Pp6WlOnz6dm+bb3g8//JDu+BcrVsx0797dSDJt27Y1Fy9ezHS58PBwa5nRo0fnyzYKAmdf1M6YMcN4enqa+fPnW2VXrlzJ/Y7YWN26dY0kU716dats3rx51vG/9957b7js9V8EhoSEWOWnTp2yvoyKjo6+ZbBr1KhR/u3gbe6///2vdRzmzZtnlVevXt0qv9k46LSu+23atLHKHA6H2b9//y2vcTJbtiDK789AdpdF9rlNsMtOV7rbrTucM8YXGcNLOW/GGXcrEhISTLFixUyHDh3MjBkzzMaNG82lS5fybZ/sJjvji9LkdozQyZMnjaenp3n44Ydz03S3kZ1B82mmTZtmBeuff/45X7ZREDjzonbXrl3Gz8/PfPnll1ZZUlKSuf/++01cXFwe7pW9pI338ff3t8rOnj1rHf9OnToZh8NhPvroIzNlyhSTkpJi1UsLbdWqVbMC8n/+8x/j4+NjvL29zXfffWeMMSYxMTHdz8KFC631P/vssyY5Odm5O30bWblypXUsZsyYYZU///zzVvmuXbvM7t27zUsvvWT27NmTbvmBAwem+5ykpqZad7MbNGhgHA5HlpctqPL7M5CdZZEzbhPssjMo/3brDueM8UXh4eFmwIAB1v/gr1y5ki4cFvQnETnjbsW///3vDH9vd999t5kxY0aB/p/59bI6vihNbscIffbZZxkuIgqy7AyaT9OpU6cM/8bm9TYKAmdc1BpzredG2heJTZo0MU2aNDENGjQw/v7+pmLFis7b4dtQ2pcUkszWrVuNMdd696T9OxQSEmK2b99u1WnRooXZsGGDSUxMNCNGjDCFCxc2oaGh1vq6detm1e3cuXOm2+ThKf9z8eJFU6lSJSNdG/OcmppqUlNTTaNGjYwk07FjR5Oammoef/xxI13rJfOPf/zDnDlzxoSHh5u77rrLdOnSxVrfvn370v0bExYWluVlC6r8/gxkZ1nkjNsEu+wMyr/dusM5Y3xRZrp06WIkmdKlS/MNicn/uxVPPvnkDb9Q6NSp0y27cbq77I4vyosxQq1btzaenp7mxIkTebELtpaTQfObN282Hh4epnXr1pmO/8qLbRQUzrioTU5ONq1atbrhv0M3Ch8FyXvvvWeKFCliSpQoYR577DHj4+NjAgICzLp164wxxqSkpJgHH3www5dPbdq0yXAN9d133xlvb2/j7e1tFi5cmOn2lixZYq1n6NCh+b5/t7vw8HDTvHlzI13rfVWjRg3j5eVlnn/+eXPhwgVjzLW720WLFrWOm4eHhylZsqT59NNP0/075HA4TIMGDYwkU79+feNwOLK8bEGWn5+B7CyLnHGbYJfVrnS3a3c4Z48vyu27j9xRft+t+Oabb8zbb79tnn32WdOwYcMM2/n888/zepdsIyfji3I7Ruj06dPGy8vLPPjgg3mzEzaX3UHz8fHxpkqVKqZJkybp7mjf7BzkZmB+QZDfF7XvvPPODUOdJPPuu++6atdvKwkJCWbfvn0mJCTEREdHZ/qlW0REhNmwYYPZvXv3Tb/8O3nypDl58mR+NtctHTt2zGzfvt2EhYVleo126dIlExISYjZt2nTDc2TMtc9BeHh4uu7IWV22IMvvz0BWl0X2uU2wy2pXutu1O5yzxhfxUs7MOeNuxV+FhoZaF3EF/dvy7I4vysoYoVsNmp81a5aRZKZOnZpPe2Uv2R0036NHD1OvXj0TGxtrla1YscKMGjXK+v2vg+ZzMzC/IMnPi1oAgPtKy3PesrlWrVpp/Pjxev311yVJ8fHxWrx4se69914tW7ZMd9xxhyRp/vz5GZaNiYnR8OHDtWbNGq1YsUIeHh45akNkZGTOd0DSP/7xD/Xt2zdd2fDhwyVJjzzySIb6+/fv19mzZ1WqVCm99tprWdr+pUuXtHv3bsXFxVll8+fPV8mSJa1tFUSffvqpfvrpJxUuXFiDBg1S165dNWDAAB05ckSStGTJEnXs2NGqn5CQoL59++pvf/ubJk+erMOHD0uSkpOTVahQoSxt86677tLnn3+u4OBg7dq1S4cPH87135BdxcbGWtORkZHWcWjWrJkOHTokSSpVqpQiIyMVGxur7t27KzExUdOnT9f06dOVkpKi06dPy8/PT2fOnFFMTIy6deumAwcOqFatWlq6dKk8PT3TbfNf//qXPDw8FBgYWGCPe2ZiY2Ot41GjRg2rPCAgwCr/8ssv9Z///EflypXTww8/LGOMLl++rOjoaL333nuKjIzUmjVrNHr0aBljNGnSJHXo0CFb2yjoSpUqJUk6fvx4pvNLly4tSUpMTNTvv/9+w/X4+PhYnyEAQP4LCAhwdRPkeesqt79XX31VrVu3Tld2/PhxtW/fXsnJyZKkrl276u2339azzz6rhg0bpqu7atUqzZo1y2ntvd6CBQsUHBysChUqKCgoyCp3OBwaM2aMHA5HuvrGGE2YMEFeXl6aMGGC/P39s7SdokWL6v3339fq1atVp04dq3zz5s15syM2tX79eklS2bJl5evrq3vuuSdd0P3rhdPYsWN1xx136J///KeKFCkiSdq0aZMmTpxo1Tl79qzOnj170+36+flp4MCBkqT7778/T/bFjpo2bapy5cpJunYujDEyxmjPnj2SpIcfflh16tTR1atXNWrUKJ08eVKS9Ouvv+rXX3/Vb7/9pnPnzql27dqSrp2vAwcOSJJ+++03RUREpNveuXPntHPnTjVo0EBly5Z11m7e1rp27Srp2rHZtWuXJOmXX36RJHl5eWnw4MGSpK1bt+qTTz6RJJ04cUK//vqrwsPD9eeff8rhcFj/rqxevVpXr16Vw+HQqlWrsrUNAACQC3bvipnTQfm3Q3c4V4wvMoaXcl4vK4/4TZP2kJWKFSuaJk2amMaNG5uaNWsaLy8v8/XXXxtjMn/M9ebNm80LL7xgPWkqzf/93/8ZSeaHH35wwp7evrIyviirY4QyG190vbSn6E6aNMnp+3k7u9Wg+fPnz5sSJUrc8PgXKlTI6tJ+owdH3GobAAAgZ9xmjF1uBuVfvnzZerpk48aNndjqa1wxvigNL+W8JiuP+DXGmO+//954enre8MI2LCzMGJP5Y67r1atnlfXt29dERUWZ8PBw06JFCzN58mTX7Pht6Fbji7LqZuOLfv/9d7Nu3bocvdDc3WVl0HxW3ejBEXm5DQAAcI3bBLvcDspfunSpkWReeeWV/G5qBll9f5ExWXsHES/lzJn8vlvx7bffmrJly1r1vQSIdWsAACAASURBVLy8TP369dOFeQAAACAn0vKcR0REhJFujwF/OdG4cWP98ssv8vf315kzZyRdG6CfNvasU6dOWrlypbZs2aLly5erW7duatmypbX8mjVr1L59e/3www9q1aqVU9seHx+vevXqKSoqSo8++qg13qtx48bavXu3OnbsqJUrV+rq1atq06aNtm7dmul6OnfurGXLlunXX39V/fr1rfKwsDCNGTNGa9eula+vr8aOHauhQ4fq9OnTatmypR566CEtXbrUKft6u0tMTNShQ4d08eJFVaxYUeXLl8/xw3ROnTolSenGcBljFBYWpqSkJNWvX98anwcAAADkhvUAMrvfsctqV7rbtTtcfo8v4qWcAAAAgPtymzt2kvT+++/ro48+ko+Pj5o2barNmzerSpUqmjFjhtq2bSvp2iPOX3vtNetuipeXl+rWratXX31VvXv3dmXzJV17imd0dLT8/PxUo0aNHN/RSU1N1cGDB1W7dm3rMe+XL1/Wnj17lJycrOrVq+fqbhQAAACA20faHTu3CHZS1rrSGbrDAQAAAHAjacHO9i8oT+Pn56d69erdtI6Hh4caNWrkpBYBAAAAgHO4xQvKAQAAAKAgI9gBAAAAgM0R7AAAAADA5gh2AAAAAGBzbvPwFAAAgJzq89UBl25/XnAdl24fgP0R7AAAAOBSBGvX4xzYH8EOAAAX44IKAJBbjLEDAAAAAJsj2AEAAACAzdEVEwBAV0AAAGyOYAfA5QgVAAAAuUNXTAAAAACwOe7YAeKOEQAAAOyNYHcbIFQAAAAAyA26YgIAAACAzRHsAAAAAMDmCHYAAAAAYHMEOwAAAACwOYIdAAAAANgcwQ4AAAAAbI5gBwAAAAA2R7ADAAAAAJsj2AEAAACAzRHsAAAAAMDmvF3dgLyydu1arV+/XkeOHFGpUqXUqFEjDRw4UIUKFUpXLzY2VgsXLtT69ev12GOPqWfPnvL393dRqwEAAAAg92x/xy41NVXPPPOM2rVrp23btqlv3746c+aMhgwZosDAQF24cMGqGxUVpSpVqmjy5MkKDg7WlClTVLVqVf35558u3AMAAAAAyB3bB7uvv/5a//73vyVJb7zxhjp37qyJEydKkg4cOKApU6ZYdYODgxUfH69BgwbpiSeeUK9evRQfH69+/fopNTXVJe0HAAAAgNyyfbDbsGGDNR0eHi5JqlatmsqUKSNJioyMlCStWbPGqlu5cmVJUqVKlSRJISEhWr9+vbOaDAAAAAB5yvbBLi2kSdLkyZMVHh6u5ORknT9/XpLUpk0bSdLevXuter6+vpKkwoULW2VpoRAAAAAA7Mb2wa5Dhw7WdFxcnJo3b66goCAlJSWpbdu26tGjhyQpIiLCquftfe2ZMZ6e/9v9AwcOOKnFAAAAAJC3bB/sWrVqpfHjx1u/x8fHa/Hixbr33nu1bNkyFStWTFL6YOfl5ZVhPQcPHsz/xgIAAABAPnCL1x28+uqrWrdunTZv3myVHT9+XO3bt9f69etVqFAhnThxwprn4eGRYR3nzp3L8fbTxvHZld3b7w44B67F8Xc9zoFrcfxdj3PgWhx/17P7OQgICHB1E+x/x+7UqVN64IEHtHnzZo0aNUoVKlSw5m3dulWfffaZJKl8+fIZlr3+SZjXj9UDAAAAADux/R27zz//XD/99JN8fX01fvx4jR49Wm3atLFS/9q1a/Xiiy+qWrVqCgkJkSSlpKRISh/satasmeM25Dqhb3Xt+L7b4RsGl+McuBbH3/U4B67F8Xc9zoFrcfxdj3Nge7a/Y7dkyRJJ1+7I+fn5qUKFCho3bpw1P+1pl7Vq1bLKkpOTJUkOh8Mq448JAAAAgF3ZPtilvbog7fUGktSuXTtrOjAwUJLUu3dv66EpZ8+elXTtKZqS5OPjo/bt2zulvQAAAACQ12wf7Pr37y/pWljbtm2bJFldLr29vTVmzBhJUoUKFTRs2DBJ0vbt2yVJGzdulCQNHjxYVapUcWq7AQAAACCv2H6M3YgRI3ThwgV99NFHevLJJ9W0aVNt3rxZAQEBmjFjhlq0aGHVnTp1qlJSUjRnzhw1bNhQ+/fv17BhwzR16lQX7gEAAAAA5I7tg50kvfnmmxo9erQOHTqkixcv6quvvlL58uUzvNbA09NTM2fO1MSJExUeHq7atWurePHiLmo1AAAAAOQNtwh2kuTn56d69eplqW7RokV1//3353OLAAAAAMA5bD/GDgAAAAAKOoIdAAAAANgcwQ4AAAAAbI5gBwAAAAA2R7ADAAAAAJsj2AEAAACAzRHsAAAAAMDmCHYAAAAAYHMEOwAAAACwOYIdAAAAANgcwQ4AAAAAbI5gBwAAAAA2R7ADAAAAAJsj2AEAAACAzRHsAAAAAMDmCHYAAAAAYHMEOwAAAACwOYIdAAAAANgcwQ4AAAAAbI5gBwAAAAA2R7ADAAAAAJsj2AEAAACAzRHsAAAAAMDmCHYAAAAAYHMEOwAAAACwOW9XNyC3UlJSNGnSpJvWGTVqlO644w5J0vLly3XgwIEMdcqUKaNBgwblSxsBAAAAID/ZPtiFhYVp7NixN5xfvnx5jRkzRpLkcDg0ZMgQnTp1KkO9ESNG5FsbAQAAACA/2b4r5o8//njT+d27d5eHh4ckadOmTZmGOkkKDg7O87YBAAAAgDPY/o5dSEiIqlevrt69e6tixYpWl8vJkydr165deuqpp6y68+fPV8+ePTVw4MB06/Dx8VH9+vWd2m4AAAAAyCu2D3YOh0Pbtm1T2bJl05WNGjVK5cqVU4sWLSRJiYmJWrJkiVq2bKlDhw6pdu3aatasmYoUKeKqpgMAAABAnrB9V8xly5alC3WStHXrVsXExKhr165WN8yVK1cqPj5e33//vYYPH65HH31UVatW1WeffaaUlBRXNB0AAAAA8oTtg11mFi1aJEl6+umnrbL58+dnqBcTE6Phw4erW7duMsY4rX0AAAAAkJds3xXzr1JTU7VkyRKVKVNGLVu2tMq7du2qwMBAHTt2TL/88ov27NljzVu1apVmzZqloUOH5mibkZGRuW63K9m9/e6Ac+BaHH/X4xy4Fsff9TgHrsXxdz27n4OAgABXN8H9gl1ISIhOnTqlIUOGyNPzfzckBwwYkK7ezp079dJLL2n79u2SpLVr1+Y42AEAAACAK7ldsEvrhnn90zAz06xZM61fv17t2rXTtm3bdPz48RxvM9cJfWvGF6Y70+3wDYPLcQ5ci+PvepwD1+L4ux7nwLU4/q7HObA9txpjZ4zR4sWL5e/vr4cffviW9e+44w699NJLkqTWrVvnc+sAAAAAIH+4VbDbvn27Tpw4oS5dusjLyyvdvC1btujFF1/Utm3b0pX7+vpKkjp16uS0dgIAAABAXnKrYHezbpgjR47U1KlT1apVK/Xr10/R0dHav3+/3n//fU2ePFmtWrVydnMBAAAAIE+4TbAzxmjRokUqWbKkHnnkkQzzX375Zet9d3PnzlXVqlUVFBSkoUOHWt0xAQAAAMCO3ObhKcYYff311ypZsqR8fHwyzO/Xr5/69u2rsLAwJSUlqX79+ipSpIgLWgoAAAAAecttgp2np6fatm170zoeHh5q1KiRk1oEAAAAAM7hNl0xAQAAAKCgItgBAAAAgM0R7AAAAADA5gh2AAAAAGBzBDsAAAAAsDmCHQAAAADYHMEOAAAAAGyOYAcAAAAANkewAwAAAACbI9gBAAAAgM0R7AAAAADA5gh2AAAAAGBzBDsAAAAAsDmCHQAAAADYHMEOAAAAAGyOYAcAAAAANkewAwAAAACbI9gBAAAAgM0R7AAAAADA5gh2AAAAAGBzBDsAAAAAsDmCHQAAAADYHMEOAAAAAGyOYAcAAAAANkewAwAAAACb83Z1A3IrJSVFkyZNummdUaNG6Y477pAkxcbGauHChVq/fr0ee+wx9ezZU/7+/s5oKgAAAADkC9sHu7CwMI0dO/aG88uXL68xY8ZIkqKiolSvXj2VKlVK06ZN0wsvvKDXX39de/fuVZUqVZzVZAAAAADIU7bvivnjjz/edH737t3l4eEhSQoODlZ8fLwGDRqkJ554Qr169VJ8fLz69eun1NRUZzQXAAAAAPKc7e/YhYSEqHr16urdu7cqVqxodbmcPHmydu3apaeeekqStGbNGm3YsEGSVLlyZUlSpUqVrHWsX79ejz/+uPN3AAAAAAByyfbBzuFwaNu2bSpbtmy6slGjRqlcuXJq0aKFJGnv3r3WfF9fX0lS4cKFrbLw8HCCHQAAAABbsn1XzGXLlqULdZK0detWxcTEqGvXrlY3zIiICGu+t/e1POvp+b/dP3DggBNaCwAAAAB5z/bBLjOLFi2SJD399NNW2fXBzsvLK8MyBw8ezP+GAQAAAEA+sH1XzL9KTU3VkiVLVKZMGbVs2dIqP3HihDWddhfveufOncvxNiMjI3O87O3A7u13B5wD1+L4ux7nwLU4/q7HOXAtjr/r2f0cBAQEuLoJ7nfHLiQkRKdOnVLXrl3TdbUsX758hrrXPwkz7YEqAAAAAGA3bnfHLq0bZtrTMNNUq1ZNISEhkq691FxKH+xq1qyZ423mOqFvde34vtvhGwaX4xy4Fsff9TgHrsXxdz3OgWtx/F2Pc2B7bnXHzhijxYsXy9/fXw8//HC6ebVq1bKmk5OTJV17emYa/pgAAAAA2JVbBbvt27frxIkT6tKlS4YHpPTu3dsqO3v2rCQpLi5OkuTj46P27ds7t7EAAAAAkEfcKtjdqBumJFWoUEHDhg2TdC0AStLGjRslSYMHD1aVKlWc1EoAAAAAyFtuM8bOGKNFixapZMmSeuSRRzKtM3XqVKWkpGjOnDlq2LCh9u/fr2HDhmnq1KlObi0AAAAA5B23CnZff/21SpYsKR8fn0zreHp6aubMmZo4caLCw8NVu3ZtFS9e3MktBQAAAIC85TbBztPTU23bts1S3aJFi+r+++/P5xYBAAAAgHO41Rg7AAAAACiICHYAAAAAYHMEOwAAAACwOYIdAAAAANgcwQ4AAAAAbI5gBwAAAAA2R7ADAAAAAJsj2AEAAACAzRHsAAAAAMDmCHYAAAAAYHMEOwAAAACwOYIdAAAAANgcwQ4AAAAAbI5gBwAAAAA2R7ADAAAAAJsj2AEAAACAzRHsAAAAAMDmCHYAAAAAYHMEOwAAAACwOYIdAAAAANgcwQ4AAAAAbI5gBwAAAAA2R7ADAAAAAJsj2AEAAACAzRHsAAAAAMDmvF3dgPwQFRWlxYsXKzIyUomJiZozZ448PDwkScuXL9eBAwcyLFOmTBkNGjTI2U0FAAAAgFxzq2B37NgxDR8+XCtXrlTjxo01bNgw9ejRwwp1DodDQ4YM0alTpzIsO2LECGc3FwAAAADyhNsEu82bN6tHjx46e/asnnvuOc2cOdMKdGk2bdqUaaiTpODgYGc0EwAAAADynFsEu8OHD6tLly66ePGievXqlWmok6T58+erZ8+eGjhwYLpyHx8f1a9f31nNBQAAAIA85RbBrk+fPrp48aIk6e2338401CUmJmrJkiVq2bKlDh06pNq1a6tZs2YqUqSIs5sLAAAAAHnK9sEuNDRUoaGhkiQ/Pz/Nnj1bp0+fVt26dTVkyBCVKFFCkrRy5UrFx8fr+++/1/fffy9JuvvuuzVu3DgNHjxYPj4+LtsHAAAAAMgN27/uYN68edZ0sWLFtHbtWs2bN0+vv/66GjRoYI2pmz9/foZlY2JiNHz4cHXr1k3GGKe1GQAAAADyku3v2P3222/W9IQJE9SvXz8FBQXpu+++U3R0tMaNG6cvv/xSXbt2VWBgoI4dO6ZffvlFe/bssZZbtWqVZs2apaFDh+aoDZGRkbneD1eye/vdAefAtTj+rsc5cC2Ov+txDlyL4+96dj8HAQEBrm6C/e/YHT161Jr28/OTh4eH+vfvb5Vt2bJFkjRgwAC98847+uqrrxQWFqbQ0FA1b97cqrd27VqntRkAAAAA8pLt79hVqFDBSvjnz5+XJFWvXt2af+LEiUyXa9asmdavX6927dpp27ZtOn78eI7bkOuEvjXjC9Od6Xb4hsHlOAeuxfF3Pc6Ba3H8XY9z4Focf9fjHNie7e/YNWnSxJo+efKkJKlkyZJW2c1eY3DHHXfopZdekiS1bt06n1oIAAAAAPnL9sHuoYcesqb37dsnSXI4HFbZAw88IOlal8wXX3xR27ZtS7e8r6+vJKlTp0753VQAAAAAyBe2D3bt2rWzHnqycuVKxcTEaO/evZKkSpUqafTo0ZKkkSNHaurUqWrVqpX69eun6Oho7d+/X++//74mT56sVq1auWwfAAAAACA3bB/sJGnatGkKDg5WkSJF1KJFC/Xo0UONGzfWmjVrVK5cOUnSyy+/rLJly0qS5s6dq6pVqyooKEhDhw61umMCAAAAgB3Z/uEpkuTt7a3Zs2dr5syZ2rNnjypVqqTSpUunq9OvXz/17dtXYWFhSkpKUv369VWkSBEXtRgAAAAA8o5bBLs03t7eaty48Q3ne3h4qFGjRk5sEQAAAADkP7foigkAAAAABRnBDgAAAABsjmAHAAAAADZHsAMAAAAAmyPYAQAAAIDNEewAAAAAwOYIdgAAAABgcwQ7AAAAALA5gh0AAAAA2BzBDgAAAABsjmAHAAAAADZHsAMAAAAAmyPYAQAAAIDNEewAAAAAwOYIdgAAAABgcwQ7AAAAALA5gh0AAAAA2BzBDgAAAABsjmAHAAAAADZHsAMAAAAAmyPYAQAAAIDNEewAAAAAwOYIdgAAAABgcwQ7AAAAALA5gh0AAAAA2Jy3qxuQH6KiorR48WJFRkYqMTFRc+bMkYeHhyQpNjZWCxcu1Pr16/XYY4+pZ8+e8vf3d3GLAQAAACDn3OqO3bFjx9SlSxdVrVpV//73v/XAAw9o1qxZVqiLiopSlSpVNHnyZAUHB2vKlCmqWrWq/vzzTxe3HAAAAAByzm2C3ebNmxUYGKjly5fr73//u0JDQ9W/f3/5+flZdYKDgxUfH69BgwbpiSeeUK9evRQfH69+/fopNTXVha0HAAAAgJxzi2B3+PBhdenSRWfPnlWvXr00c+ZM6y5dmjVr1mjDhg2SpMqVK0uSKlWqJEkKCQnR+vXrndpmAAAAAMgrbhHs+vTpo4sXL0qS3n777QyhTpL27t1rTfv6+kqSChcubJWFh4fncysBAAAAIH/Y/uEpoaGhCg0NlST5+flp9uzZOn36tOrWrashQ4aoRIkSkqSIiAhrGW/va7vt6fm/XHvgwAEnthoAAAAA8o7tg928efOs6WLFimnt2rXW3beZM2dq586dKlu2bLpg5+XllWE9Bw8ezP/GAgAAAEA+sH2w++2336zpCRMmqF+/fgoKCtJ3332n6OhojRs3Tl9++aVOnDhh1cusq+a5c+dy3IbIyMgcL3s7sHv73QHnwLU4/q7HOXAtjr/rcQ5ci+PvenY/BwEBAa5ugv3H2B09etSa9vPzk4eHh/r372+VbdmyRZJUvnz5DMte/yTMtAeqAAAAAIDd2P6OXYUKFayEf/78eUlS9erVrflpd+qqVaumkJAQSVJKSoqk9MGuZs2aOW5DrhP6VteO77sdvmFwOc6Ba3H8XY9z4Focf9fjHLgWx9/1OAe2Z/s7dk2aNLGmT548KUkqWbKkVVa/fn1JUq1atayy5ORkSZLD4bDK+GMCAAAAYFe2D3YPPfSQNb1v3z5J6QPbAw88IEnq3bu39dCUs2fPSpLi4uIkST4+Pmrfvr1T2gsAAAAAec32wa5du3YaOnSoJGnlypWKiYmx3llXqVIljR49WtK1LpvDhg2TJG3fvl2StHHjRknS4MGDVaVKFWc3HQAAAADyhO3H2EnStGnTlJKSokWLFqlFixaKjY1V48aNNXfuXJUrV86qN3XqVKWkpGjOnDlq2LCh9u/fr2HDhmnq1KkubD0AACjo4uLi9MUXX2Q676mnnlKNGjWyVe9WHA6HVq9erdDQUB0+fFj9+/dXhw4dctZ4ALcFtwh23t7emj17tmbOnKk9e/aoUqVKKl26dIZ6np6emjlzpiZOnKjw8HDVrl1bxYsXd0GLAQAA/ue7777T2LFjM5R7e3tr0KBB2a53M19++aXee+89XbhwQf369dO4ceNUt27dnDcewG3BLYJdGm9vbzVu3PiW9YoWLar777/fCS0CAAC4tfnz52da/sQTT6hMmTLZrpeZpKQkDRo0SAsWLJC/v79+/PFH1atXL+eNdjPLly/XgQMZnwxZpkyZdKE5q/Uys3v3bs2ePVt//PGHKlasqKFDh6pRo0a5b7wbcPZda0maPHmyVq1apaVLl6pEiRLZb/Rtxq2CHQAAyBlnXNSuWLFCixcvVlxcnFq0aKGgoCBVrFgx9423uUtnj+nnn3/WsmXL5Ovrm25e7dq1rek///wzS/VuZPTo0VqwYIF8fX21YcMGQt11HA6HhgwZolOnTmWYN2LEiGzXy8yMGTM0cuRIGWOssm+++Ubr169X69atc9F69+DMu9aStGnTJr366qtKTU3VlStXctbo2wzBDgCAAs4ZF7WjRo3StGnTrN9XrVql6dOna/PmzQX+lUNHdq5WkSJFFBYWpjp16qhBgwaZvl93wYIFWaqXmTVr1uizzz6TJHXt2lUNGjTI032wu02bNmX6dy1JwcHB2a73Vz/++KPeeOMNDRw4UHFxcVq1apWuXr0qh8Ohjz/+mGAn59y1ThMTE6M+ffqke6e1OyDYAQBQwOX3Re3q1as1bdo03XXXXbp06ZJSUlIkSSdOnNCLL76o1atX56L19nfkp9W6cP683n33Xausc+fOGj9+fLo7cQsWLND5LNTLzPUPirt8+bIGDhyoYsWKqVOnTnrsscfycG/saf78+erZs6cGDhyYrtzHx8d6J3J26mW2/nXr1qlZs2aSpClTplhPbr98+XJe7YZtOeuutSQZY9SvXz/r/dfuhGAHAHC5nHTvO3nypPUkvxdeeOGW29iyZYtWr16tyMhItWnTRp07d6Yb4P+X3xe1M2bM0IwZMzR06FCdOnVKAwcO1Lp16yRdC4vGGHl4eOThHtnHueiDunDicIby5cuX6/vvv9eWLVvUvHlzhYWFZfoZ+Wu9zMTExGj9+vXW72fOnNH69euVmJio6dOn64MPPsi0a1tB4Ui5ohVLlqhly5Y6dOiQateurWbNmqlIkSLp6iUmJmpJFupl5vPPP0/3+6OPPmpNd+3aNW92xMaccdc6zcSJExUdHa2qVavqjz/+yKtduC0Q7AAUeDkdiJ2dQddxcXH66quvdPDgQSUkJKhKlSoKCgq66cVwQWFSs9+9LzU1VX369NGmTZtUtWrVW25j/PjxGjt2rPr27auWLVtq5MiRGjt2rEJCQgp8lzRnXNR+/PHH1t96uXLl9Nprr1nBrkaNGgU21EmSVyFfNXrqZT1UwaGoqCitXbvWuoOTkpKip59+WlFRUfLz89PEiRN14sSJm9bz9s54aRcZGWl1OatcubK2b9+uAwcO6G9/+5uMMXrnnXcUFBSkypUrO22/byfH9m5RfHy8vv/+e33//feSpLvvvlvjxo3T4MGD5ePjI+na+5KzUi8r5s6dK0kaMGCAXnzxxTzeI/txxl1rSQoNDdX777+vH3/8Ub17987bnbgNEOyA24Az7lZcLyoqSosXL1ZkZKQSExM1Z86cAn1hlZOB2NkZdB0SEqInn3xS586d04QJE+Tv76+XXnpJEydO1Oeff67nnnsuT/bDrk79tjPb3fs+/PBDbdq0KUvrX7JkiXV+x4wZozp16mjhwoXavXu3OnbsqF27dqls2bI5a7wbcMZF7V+/wLh+HExB7wZ4Z9kqurNsFU0JriNJunjxombPnq3XX39dKSkpOnHihMLDw9WwYUPVqlXLWu5m9f7q6NGj1rSfn58kqU6dOmratKl27typlJQUbd++vcAGuyOhqzKUxcTEaPjw4VqzZo1WrFghDw+PTMd2ZVbvZnbs2KEpU6Zo0aJFkq6NNd20aVO6O3gFjTPuWkvS+fPn1atXL02YMMFtHxxEsANczBl3K9IcO3ZMw4cP18qVK9W4cWMNGzZMPXr0KNChTsr+QOzsDLo2xigoKEjnzp1TYGCgXnnlFUnXguG8efM0atQo9e/fP8NYgYLkyM5V2eret23bNr311ltZXv/ixYut6bR3nDZu3Fi7d+/W8ePH9d///veWD/5wZ868qE2TFsq9vLz0zDPP5G4H3Mydd96p0aNHKyAgQJ07d5YxRsePH88Q2LJaT5IqVKhgTZ8/f96arl69unbu3Cnp2njHgqpCozZ6tksrHTt2TL/88ov27NljzVu1apVmzZqloUOHqmvXrgoMDLxlvZuJiYnRn3/+af1+9uxZPfHEE4qNjbVCd0HjjLvW0rUvCu+77z4NGTLEafvmbAQ7wMXy+25Fms2bN6tHjx46e/asnnvuOc2cObPABzop6wO202R30HVERIT1bfnhw4d15coV+fr6qkWLFpo3b56SkpIUFRWV7TEC7sKRckVHd29QrRIPZal7X2xsrIKCgtSxY8csP3Bj+/bt1nRCQoIkpbszsXPnzgId7Jx5UZsmrRvmG2+8kaX3zxZETzzxhOrXr6/9+/frwQcfzFa91NRU/fbbb6pVq5Y8PT0VGBgoLy8vORwOxcTEKDU1VZ6enipZsqS1noLcLbxq8y565//fMZWu/Zvw0ksvWf92rF27VkOHDtWAAQPSLXejejfTuXNnde7cWdOmTdNLL70kh8OhxMREbdq0SR07dszbHbMJZ9y1nj17tpYtW6aVK1cqNDRUknTp0iVr/s8//6xWrVqpePHi+by3+YtgB6eML0pMTNQXX3yhbdu2yeFwqGXLlhoxYoQKFSqU6/b/v/buP6yqOsHj+IdfiorZOKamIErlj7VQQaQ/OQAAIABJREFUzMkckTLbMDUTp5ZEJUWfHlExdRzbtsmczfUxHR2aWVLXmrZRQnfM8keGIS6Fo1iJUiDCqCUmKv4axUJBOPsHe49cQUW5PzqX9+t57vNczvle7/ec4xfu535/HKtzdm+FVB0oRo4cqQsXLmj06NGEuhrqO2Hb5lYnXQcGBsrX11dXrlzRhQsXNGPGDC1btkwlJSWSqr9Jb8xLvX+fk6GKSz/Ue3jfhAkTFBERoV/96lf1DnY1/3ifOXNGwcHBCg4ONrd9+eWXDjgS63Llh1rp6iI2gwYN0ty5cx13IBZ1pfyS9n+yUovPhSg+Pl4BAQHmPn9/fw0cOFCtWrXSjz/+qIULF6ply5Y3LGcYhvr27au9e/eqV69eys7OVosWLdS3b1/t3r1blZWVysvL0wMPPKDKykpJkpeXl7laI6R+/fopLS1NQ4YMUWZmpo4dO9agcnWZPn26Dh8+rDfffFOSPG4Rj4ZwRq/1rl27VFlZqaFDh9b5niNGjNCGDRs0YsQIpxyTq3i7uwJwP9v8omsfc+fO1R133FHna2zzizIyMm46v6ikpER9+/bVzJkztX79em3YsEGzZ8/WsGHDPO7+IbfK1ltRWlqqgwcPys/PT+Hh4YqMjNRjjz1Wq3zN3opbMXbsWF24cEGS9NprrxHqavjui4/NidjR0dHq3r27Ro4cqfz8/FplbZOu165dW68FIyQpICBAERER5s8rVqzQ0KFDtWzZMgUEBGjp0qWN+nrcaBjgqFGj7G7km5iYqPz8fC1fvvyW3qNmcP7ss88kyW6ozvWG7TRWtg+rAwcOlKSbfqi9WbmaLl68qLi4OPXt21cbNmyQj4+PJOny5csOqr31HM/doW82L9ecOXPUo0cPpaSk6IcfftDy5ctVWlpqLrKRmpqq119//ablcnNztXfvXklSTk6Ovv76a0nSe++9Z34J+84775j7Jen111+3fE+FozVv3lyzZs2SpBveY+565U6ePKmTJ0/e8D1qjhTo06dPQ6rrkWy90b6+vvXqta5ZrqqqSvv37zc/Z9bn76wn/C0m2MGp84uk6lAREBCg6dOn2w1/2rZtm7744ovbqrOnqNlbMW3aNA0ePFghISFKSkoy7/NUk6234noLetQlKyvLHHbQrFkzrVy5UuPGjdPChQvt5lo0RjeasN2rVy+7IXwNmXS9evVqdenSxfw5NTVVJ06c0OLFi/XMM8/c/gF4gKA+j+uBp6Zo4sSJtb5ltQ3vk6Q9e/Zo7ty5Wrt2rVq2bHlL71Hzw1NiYqI2b96sXbt2mdtq9t6hmrM+1E6cOFEBAQFKTU01r+OmTZv00ksvObL6lnJ3zwFq372ffHx89P333ysmJkadOnVSRkaGMjMz1bFjR0kyv/C7WbmePXuaK72GhoaaIz+6deumdevWKSwsTMuWLVOvXr2Un5+vV155Ra+88op7Dv4n4mTBl5o5c6YyMzPtttuG5w8fPlxSdW9zfcr99a9/VVBQkAIDA7V27VpVVVXpjTfe0B/+8AdduXLFfJ1t1NI999zTqIckXym/pK83/EmLFy+2G2Eh1e61njt37k3L2Xqte/bsqT59+qiqqkorVqxQWVmZ3aNnz57m67/99lvz+lkZX1M2cs6eX5SXl6eOHTsqNTVV3t7eWrRokYKCgnTq1ClJ3JSzvosWSFd7K7Kzs+3uR3Qzq1evNp+3bNlSW7duVW5uriRp2bJl2r17d6NdEbC+E7Z9fX0bNOn67rvv1rvvvqtHH33UbntCQoI6duyop556yhGHY0khvxwpSXr7/4cC1jW8b/z48YqOjtawYcNUXl6urKwsux7V48ePKzc3V/fff3+d7/Hcc8/p8OHDmjdvnoqKimqd7xsFl8ag+kPtSo0aNcrsfZPq/lC7YcOGm5b761//qjFjxsgwDK1evVrR0dGSpIULF+p//ud/1KlTJw0ZMkSGYZijFVauXOmSY/0p8m3aTIN//WcljmyrvLw8dejQoc4pEC1atFB6erpOnz59w3Le3t7Kzs5Wfn6+evToIW/vq9/hDx48WNnZ2SouLtbJkyfVq1cvu/2N1VcpC7TtWKESExM1btw4zZ8/X6WlpZo/f76WLFlijrqYPn26vvnmm5uWW7NmjfnlbEpKijp16qR//dd/lVS9mNPvfvc7DRgwQIsXL1bTpk2VnJyspk2buufgfwLMXuvN0h//+EctWrRII0aM0KpVq1RaWmougGXrtZZuXK6uXuvevXvXGp1R8/++v78/PXawvprzi86fP6/OnTsrMjJSkZGRdd64t+b8ovro2bOn3n33XbPxNG3aVAMGDJBUvTrdjbrWGwNX9FYcOHDAfL5o0SJ9/fXX5ip0RUVFjXqOyx3tu6hH5AQtXbpUH3zwgYqLi/X73//enNdlm4htm3Q9ceJEswf02knX58+fv+77vPXWWxoyZIhCQkI0ZcoUc/uVK1c0fvx4c54L6h7ed+rUKR06dEhr1qxR//791b9/f/32t781X7Nx40bFxsbe8N/9t3/7N50/f17Z2dk6dOiQ2rRpI6l6GObNXuvpvkpZoMTEREVERCg2NlZFRUXKy8ur80NtfcrZPtReuXJFKSkpkqRPPvnE7BUqKirSl19+qa+++koFBQWqrKxUWFiYew7+J6RNmzZ65JFHrjuv/VbKeXt7q2fPntcNbR06dFBYWBih7v/1iBxvfsG5atUqhYSEKCYmRvHx8WaPtCTNnj27XuX+5V/+Rb6+vvL19dVzzz2nX/ziF+bnnb/97W96/PHH1bJlS+Xn5+vrr79u9PMbXdVrfa2aQc5T2oJnHAVum7PnF12rqKhIn332mfz9/fXZZ5816m+opOreitARU/X2229r7969ysrKsrsHy9atW1VWVlav3orrufb+RV5eXnr++efNbRkZGY49KAuzTcT+4IMPzF/4x44ds5t0bQsWNZerHjFihDl361oXL17U7NmzdenSJY0dO1ZJSUlauHChuf/s2bONfvGOa107vO9W50Zcbxhgs2bNFBYWpn379un06dOSqldlrGvIeWPi7A+158+fV0xMzHWH7zdp0sRuSBTgaiH9n1ZxcbH27NmjnTt36vz588rJyal1A+vY2Nh6lYuOjtbRo0d19OhRPffcc/L19VVmZqYKCgq0bds2ZWdn6/z580pLS2vUi2fZ2HqtT5w4oYyMDBUWFurMmTNas2aN3cqttl7rm5Wz9Vrbeu6uF9pycnJkGIYMw1Dbtm2dfpyuQLBrxFw1v0iqXhVz4cKFCg8P17lz53Tp0iX9x3/8h7n0OKo5o7eirvsX3Xvvvea2xnzvouu5diL2rQSLaydsp6amqqysTNLVRTxeeuklu2two2Du6U4WfKk9a9+44ZyVoKCgWnMjbD1BksyeVKn23JZr7d+/31y5cfDgwbe8wqwncvaH2latWuncuXPmB6hrH5cvX77hzc0BV/Dy8lKfPn3Uv3//G355Xd9y7du3rzXNoWvXrho8eLDCwsLUvHlzh9XdU7iy19pTNa6jhR3b/KKZM2dq1KhRdr+gbPOLbJN8G3pTx4qKCh06dMhusY7k5GQtXry4YQfhgRzdW/GLX/zCfG6bG8m9i6rVd8J2fSdd1zVhu+bc1Zr//yMjI83njXkY2lcpC3Rg219uOrzP39/f7lHzVim+vr5mMKhrGKDN559/rkGDBqmkpETTp0/XJ598Yq7K2Ni54kMtAMC5CHaNmKvmF0nVQ9xWrlypvLw8uw+xmzfXXjykMXFFb8UjjzxilrUte11zTlf//v2dc3AWUN9lxn19fWsFi7omXdc1YfuRRx4xV1388MMPzV4K26qMw4YNa9TLXPeIHK9mrarnu91oeN+1rjc34tphgFL1JPvevXvr1Vdf1Zw5c1RYWKg333yTXiIAgEdhVUyYrnejR0fe1DEoKEgbN25U9+7d9cMPPzT6G3J+lbJA/zhWqIhtf7nhClvXrlh6s94KqXolrujoaA0ZMkTx8fFatmyZNm3apJKSEjPgBQcH69e//rUrDvUnyTZh+9TfvzInYrdu3Vr//M//rMzMTLuezWvVFSxsE7ZzcnLMCdve3t76+OOP9cILLyg9PV0PP/ywzp07p8OHD2vq1KlasGCBR6zEdbtC+j+tkIdHaNaDl3X58mWFhobWaw5vVFSU3T3ubKKjo80vM2w9Rg8++KDGjh17w+sJAIDVEexQi21+UV5ensLDw7V+/fqbvqbm/KIDBw6oe/fu1x3XHBgYqKioKK1evbpR91RI1b0V+z5YqrLzp7Vq1Sq9//776tmzp+bMmVNr3kpNN+qt2LhxoySZvRVSdY9FRUWF1q1bpwEDBujMmTPq27evVq1apQ4dOjjhyKyhvsuM18V2Y9+arrfMeM+ePfW3v/1Nx44dU1FRkZo1a6b77rvvthch8jj/P7zPUa4dAmhbiRcAAE9GsGvErpRf0v5PVmrxuRDFx8crICDA3Hft/KKkpCS71/bt21d5eXmSqucXBQcHm/OL9u7dq169eik7O1s5OTlavXq1YmNjzaVnJZk9TLb7GzVWruitkKp79VauXKlly5Zp3759Cg4O1l133eW4A7E420RsR7BN2K5Lx44dzeWYAQAAHIk5do2YK+YXvfzyy1q6dKkefvhhvf766+aNVT/66CONHDlSkyZNcsux/6TUczGC+rrRogW+vr7q27cvoQ4AAMDDEOwasfreELIuN5pfJF29IeSkSZMUEBCgS5cuae7cuWrbtq0iIiI0b948rVu3zrkHCAAAADQSDMVsxFwxv+iZZ57Rk08+qX379qm8vFz33nuvAgMDG/ViEQAAAICjEezg9PlFLVq0YPECAAAAwIkYigkAAAAAFucxPXYbNmzQ/v37a21v166d4uLibrkcAAAAAFiFRwS7yspKTZ48WSdOnKi1LyEh4ZbLAQAAAICVeMRQzO3bt9cZ1iTZLadf33IAAAAAYCUe0WOXnJys6OhoTZgwwW67n5+fQkNDb7kcAACAK/Wa84lb3z9n0ZNufX8ADWf5YFdWVqb169dr4MCBOnjwoHr06KF+/frVutFzfcsBAAAAcC2+3Gg4ywe7TZs2qbS0VFu2bNGWLVskSW3bttXcuXP1wgsvyM/P75bKAQAAoHFxd6iQPCNYwL0sH+ySk5NrbSspKdG0adOUmpqqjRs3ysvLq97lAABobPhQCwDWZ/lgFxUVpbCwMH3//ffas2eP9u3bZ+7bvHmzli9frvj4+HqXux2FhYUNPg53snr9PQHXwL04/+7HNQD/B9yL8+9+XAP3auj579q1q4NqcvssH+zGjx9v9/Pu3bs1a9Ys7dy5U5K0detWxcfH17scAMD1nn37kFvf/6+T7nHr+wMA0FCWD3bX6tevn9LS0jRkyBBlZmbq2LFjDSpXHw1O6J/XvmG6K/0UvmFwO66Be7n5/Ls7VEg/gWFobr4G7ub2NtjIz7/ENXA3zr/7cQ3cy+3n3wE84j5212revLlmzZolSRo0aFCDywEAAADAT5nle+wyMjK0YcMGjRo1SgMHDjS3+/v7S5KGDx9+S+UAd3D3wgVu7y0CAABAg1i+x2769OlKTExURESEYmNjVVRUpLy8PM2fP19LlixRRETELZUDAAAAAKuxfI/d7Nmz9dJLL+nEiRNatWqV3n//ffXs2VNz5szRmDFjbrlcY+Tu3iKJHiMAAACgISwf7GJjYzVu3Djt3btXly9fVmhoqFq0aHHb5QAAAADAaiwf7CTJy8tLffr0cVg5AAAAALASy8+xAwAAAIDGjmAHAAAAABZHsAMAAAAAiyPYAQAAAIDFEewAAAAAwOIIdgAAAABgcQQ7AAAAALA4gh0AAAAAWBzBDgAAAAAsjmAHAAAAABZHsAMAAAAAiyPYAQAAAIDFEewAAAAAwOIIdgAAAABgcQQ7AAAAALA4gh0AAAAAWBzBDgAAAAAsjmAHAAAAABZHsAMAAAAAiyPYAQAAAIDFEewAAAAAwOIIdgAAAABgcQQ7AAAAALA4gh0AAAAAWBzBDgAAAAAsztfdFXCUDRs2aP/+/bW2t2vXTnFxcebPZ86cUUpKitLS0vTEE08oOjpabdq0cWVVAQAAAMChPCLYVVZWavLkyTpx4kStfQkJCebzI0eO6IEHHtDPf/5z/fGPf9SMGTP08ssvKycnR126dHFllQEAAADAYTxiKOb27dvrDHWSNGnSJLvnpaWliouL01NPPaXRo0ertLRUsbGxqqqqclV1AQAAAMChPKLHLjk5WdHR0ZowYYLddj8/P4WGhkqSUlNTtW3bNklS586dJUnBwcGSpB07digtLU2RkZGuqzQAAAAAOIjle+zKysq0fv16lZaW6uDBg/Lz81N4eLgiIyP12GOPmeVycnLM5/7+/pKkpk2bmttyc3NdV2kAAAAAcCDLB7tNmzaptLRUW7Zs0bRp0zR48GCFhIQoKSlJFRUVZrmCggLzua9vdUelt/fVw69r4RUAAAAAsALLB7vk5ORa20pKSjRt2jSNGjVKhmFIsg92Pj4+tV6Tn5/vvEoCAAAAgBNZfo5dVFSUwsLC9P3332vPnj3at2+fuW/z5s1avny54uPjVVxcbG738vKq9e+cO3fututQWFh4269FNc6he3H+3Y9r4F6cf/fjGrgX59/9uAbu1dDz37VrVwfV5PZZPtiNHz/e7ufdu3dr1qxZ2rlzpyRp69atio+PV2BgoL777ju7sjVXwrQtqAIAAAAAVmP5YHetfv36KS0tTUOGDFFmZqaOHTsmSbrnnnu0Y8cOSTLn3tUMdt26dbvt92xwQv+c+X1u/5ajkV8Dzr/7cQ3ci/PvflwD9+L8ux/XwL3cfv4dwPJz7OrSvHlzzZo1S5I0aNAgSVL37t3N/eXl5ZKqb2xu4wkXEwAAAEDjZPlgl5GRoZkzZyozM9Nuu+2WBsOHD5ckjRkzxlw05fTp05Kks2fPSqq+392TTz7pqioDAAAAgENZPthNnz5diYmJioiIUGxsrIqKipSXl6f58+dryZIlioiIkCQFBQVpypQpkmTOv0tPT5ckvfDCC+rSpYt7DgAAAAAAGsjywW727Nlq3769JGnVqlUKCQlRTEyM4uPjzeGYNomJiZo8ebI+/PBD9e7dW+np6ZoyZYoSExPdUXUAAAAAcAjLL54SGxurcePGae/evbp8+bJCQ0PVokWLOst6e3tr2bJlWrx4sXJzc9WjRw+1atXKxTUGAAAAAMeyfLCTqu9L16dPn3qXDwgI0MMPP+zEGgEAAACA61h+KCYAAAAANHYEOwAAAACwOIIdAAAAAFgcwQ4AAAAALI5gBwAAAAAWR7ADAAAAAIsj2AEAAACAxRHsAAAAAMDiCHYAAAAAYHEEOwAAAACwOIIdAAAAAFgcwQ4AAAAALI5gBwAAAAAWR7ADAAAAAIsj2AEAAACAxRHsAAAAAMDiCHYAAAAAYHEEOwAAAACwOIIdAAAAAFgcwQ4AAAAALI5gBwAAAAAWR7ADAAAAAIsj2AEAAACAxRHsAAAAAMDiCHYAAAAAYHG+7q6AMxw/flzPP/+8hg4dqhkzZtjt27Bhg/bv31/rNe3atVNcXJyrqggAAAAADuNxwa6qqkpjx47V9u3bFRISYrevsrJSkydP1okTJ2q9LiEhwVVVBAAAAACH8rihmAsWLND27dvr3Ld9+/Y6Q50kTZo0yZnVAgAAAACn8ageu8zMTL366qvX3Z+cnKzo6GhNmDDBbrufn59CQ0OdXT0AAAAAcAqP6bE7c+aMYmJiNGzYsDr3l5WVaf369SotLdXBgwfl5+en8PBwRUZG6rHHHnNxbQEAAADAcTwm2E2YMEERERHXXQBl06ZNKi0t1ZYtWzRt2jQNHjxYISEhSkpKUkVFhYtrCwAAAACO4xFDMRMTE5Wfn6/s7GylpaXVWSY5ObnWtpKSEk2bNk2pqanauHGjvLy8buv9CwsLb+t1uIpz6F6cf/fjGrgX59/9uAbuxfl3P66BezX0/Hft2tVBNbl9lg92e/bs0dy5c5WRkaGWLVtet1xUVJTCwsL0/fffa8+ePdq3b5+5b/PmzVq+fLni4+NdUWUAAAAAcChLB7uysjJFR0dr2LBhKi8vV1ZWlvLz8839x48fV25uru6//36NHz/e7rW7d+/WrFmztHPnTknS1q1bbzvYNTihf177vnqNjdu/5Wjk14Dz735cA/fi/Lsf18C9OP/uxzVwL7effwewdLA7deqUDh06pEOHDmnNmjW19m/cuFFHjx5VdnZ2rX39+vVTWlqahgwZoszMTB07dswVVQYAAAAAh7P04in1mRN3ozLNmzfXrFmzJEmDBg1yWL0AAAAAwJUsHeyCgoJUVlZm90hJSTH3T5w4UVlZWZKkjIwMzZw5U5mZmXb/hr+/vyRp+PDhrqs4AAAAADiQpYOdVB3Maj6aNGli7vP19ZWfn58kafr06UpMTFRERIRiY2NVVFSkvLw8zZ8/X0uWLFFERIS7DgEAAAAAGsTywe5aNYdeentfPbzZs2erffv2kqRVq1YpJCREMTExio+PN4djAgAAAIAVWXrxlLpERUXJMIxa22NjYzVu3Djt3btXly9fVmhoqFq0aOGGGgIAAACAY3lcsLsRLy8v9enTx93VAAAAAACH8rihmAAAAADQ2BDsAAAAAMDiCHYAAAAAYHEEOwAAAACwOIIdAAAAAFgcwQ4AAAAALI5gBwAAAAAWR7ADAAAAAIsj2AEAAACAxRHsAAAAAMDiCHYAAAAAYHEEOwAAAACwOIIdAAAAAFgcwQ4AAAAALI5gBwAAAAAWR7ADAAAAAIsj2AEAAACAxRHsAAAAAMDiCHYAAAAAYHEEOwAAAACwOIIdAAAAAFgcwQ4AAAAALI5gBwAAAAAWR7ADAAAAAIsj2AEAAACAxXlksDt+/LieeOIJJSYm1tp35swZ/ed//qeefvppJSUl6fTp026oIQAAAAA4jscFu6qqKo0dO1ZpaWk6cOCA3b4jR46oS5cuWrJkiSZNmqSlS5cqJCRE3377rZtqCwAAAAAN53HBbsGCBdq+fXud+yZNmqTS0lLFxcXpqaee0ujRo1VaWqrY2FhVVVW5uKYAAAAA4BgeFewyMzP16quv1rkvNTVV27ZtkyR17txZkhQcHCxJ2rFjh9LS0lxSRwAAAABwNI8JdmfOnFFMTIyGDRtW5/6cnBzzub+/vySpadOm5rbc3FznVhAAAAAAnMRjgt2ECRMUERGhuLi4OvcXFBSYz319fSVJ3t5XD3///v3OrSAAAAAAOImvuyvgCImJicrPz1d2dvZ1h1TWDHY+Pj619ufn59/2+xcWFt72a1GNc+henH/34xq4F+ff/bgG7sX5dz+ugXs19Px37drVQTW5fZYPdnv27NHcuXOVkZGhli1bXrdccXGx+dzLy6vW/nPnzjmlfvUxN8LNlyHiHve+/08A18C9OP/uxzVwL86/+3EN3Ivz735cA+uzdLArKytTdHS0hg0bpvLycmVlZdn1vB0/fly5ubm6//77FRgYqO+++87u9TVXwrQtqHI7fgoJHQAAAEDjZelgd+rUKR06dEiHDh3SmjVrau3fuHGjjh49quzsbN1zzz3asWOHJKmiokKSfbDr1q2bayoNAAAAAA5m6cVT6hpSeb0y3bt3N7eVl5dLkiorK81t9LoBAAAAsCpLB7ugoCCVlZXZPVJSUsz9EydOVFZWliRpzJgx5qIpp0+fliSdPXtWkuTn56cnn3zSxbUHAAAAAMewdLCTqu9JV/PRpEkTc5+vr6/8/PwkVYfAKVOmSJJ27twpSUpPT5ckvfDCC+rSpYuLaw4AAAAAjmHpOXZ1qTk8s+Z96qTq2yJUVFTov//7v9W7d2/l5eVpypQpSkxMdHU1AQAAAMBhvAoKCgypcc0xu3jxonJzc9WjRw+1atXK3dUBAAAAgNtiuwefx/XY1UdAQIAefvhhd1cDAAAAABzC8nPsAAAAAKCxI9gBAAAAgMUR7AAAAADA4gh2AAAAAGBxBDsAAAAAsDiCHQAAAABYHMEOAAAAACyOYAcAAAAAFkewAwAAAACL83V3BeA6//u//6ukpCQlJSWpXbt2tfafOXNGKSkpSktL0xNPPKHo6Gi1adPGDTX1LKdOndKbb76pffv2qWPHjoqMjNSoUaNqlTMMQzt27NBf/vIXeXl5ady4cQoPD5eXl5cbau1ZsrOztXLlSh0+fFidOnVSfHy8+vTpU6scbcA1lixZos2bN+vDDz/UnXfeaW6nDTjPhg0btH///lrb27Vrp7i4OPNn2oDzVVZW6uOPP1ZWVpYOHTqk559/XkOHDpVEG3CGiooK/f73v79hmRdffFHNmzeXRBtwlrNnz+rtt99Wfn6+fvzxR3Xp0kUxMTEKDQ21K0cbaKCCggKjoKDAgGe6cuWKsWbNGuPBBx80JBmSjMOHD9cq99133xktW7Y0OnfubGzcuNEICQkxWrZsWWdZ1F9hYaHx85//3Dz3tsfs2bNrlU1ISDAkGb/97W+Nl19+2ZBkTJ061Q219ix/+tOfDC8vL7vz7+PjY2zfvt2uHG3ANdLT0w1vb29DknH8+HG7fbQB57hy5YrRvn37Wr+HJBkJCQlmOdqA861YscIIDAw0WrZsaUydOtXIzc21208bcLzdu3fX+X/f9ggMDDSqqqoMw6ANOEtmZqbxs5/9zJBkLFq0yPjzn/9s3HnnnYa3t7exfPlyu7K0gdtjy3MEOw924MABIzQ01OjQoYPdL7G6fkE9/vjjhiTj3//93w3DMIxXXnnFkGSEh4cblZWVrq66x+jbt6/h7e1t3HXXXbX+mHzxxRdmuc8//9zw8vIyWrRoYZSVlRmXLl0yfHx8DElGamqqG4/A2nbs2GHccccdRlxcnDFy5EjD19fXPP+RkZF2ZWkDznfy5Enj7rvvNq9BzWBHG3CeTz8mET7NAAALtElEQVT99LofanNycsxytAHnuXTpkhETE2NIMtq0aWN8/fXXtcrQBpxj6dKlNwx2L774olmWNuB4VVVVRlBQkCHJCAsLM7ePHTvWkGQ0bdrUKCsrMwyDNtAQtjzHHDsPdt999yk7O1v5+fk3LJeamqpt27ZJkjp37ixJCg4OliTt2LFDaWlpTq2np8rKylJZWZmOHTumEydOaN26dXZDCWznXJJ+85vfyDAMtWvXTv7+/mratKk5XHbevHmurrrHSE5O1qeffqp33nlHH374od544w1z3w8//GA+pw04n2EYio2N1fHjx+vcTxtwnuTkZEVHRys1NdXukZ6ebg6Dog04169//Wu9//778vf317Zt2/TAAw/UKkMbcI4dO3bo3nvv1WuvvaZ33nlHKSkpSklJUd++fSVJzzzzjCTagLMUFBTo6NGjkqRDhw7p0qVLkqQBAwZIki5fvqwjR45Iog04AsHOg3l7e8vHx0d33HGHAgICrlsuJyfHfO7v7y9Jatq0qbktNzfXeZX0YCEhIUpPT1f79u3l7e2tX/3qVwoPDzf3d+vWTVL1B95vvvlG0tXzL129Bnl5eS6stWd566231K9fP/PnwYMHm8+joqLM57QB51u8eLGKiooUEhJSax9twHnKysq0fv16lZaW6uDBg/Lz81N4eLgiIyP12GOPmeVoA86TmpqqpKQkSdW/d3r16lWrDG3AeSorK5WZmal58+YpLi5Ozz33nJ599lkVFRWpQ4cOZsCgDThHYGCgfH2rl/S4cOGCZsyYIcMwVFJSIkkKCgpS165daQMOQrBrJLy9r3+pCwoKzOe2xlezfF0T7nFzbdu2rbVIje1nHx8f80PV0aNH9eOPP0q6ev6lq9egtLTU/LYLDbNq1SpJ0vjx4zVz5kxzO23AubKysjR//nytXbtWLVq0qLWfNuA8mzZtUmlpqbZs2aJp06Zp8ODBCgkJUVJSkioqKsxytAHnSUxMNJ//8MMPmjBhgqZPn65PP/3U3E4bcJ6PPvpI7du3t9v2+eefq6SkRFFRUeZIGtqAcwQEBCgiIsL8ecWKFRo6dKiWLVumgIAALV26VF5eXrQBByHYwe6XmY+PT639NxvKifoxDEMZGRmSpGHDhpmrAd7s/Etcg4batWuXnn32WS1ZskSStHnzZm3fvt3cTxtwnn/84x8aPXq0Fi1aVOfwM4k24EzJycm1tpWUlGjatGkaNWqUDMOQRBtwlpKSErshfKdOndLatWv1pz/9SZGRkVqwYIEk2oCrrVu3TpL07LPPmttoA86zevVqdenSxfw5NTVVJ06c0OLFi82hsLQBxyDYQcXFxebzupaTPXfunCur47Gys7N1+vRptW3bVv/1X/9lbr/Z+ZeqPxzj9pWUlOjbb781fz59+rSeeuoplZWVSaINONOkSZP04IMPavLkydctQxtwnqioKL322muaOHGievfubbdv8+bNWr58uSTagLMUFhaqqqpKUvW8rZ07d+qrr74yz/G8efP03Xff0QZcqKqqSuvXr1e7du00cOBAczttwHnuvvtuvfvuu7W2JyQkaNOmTZL4O+AoBDsoMDCw1jbbHyLp6iRi3D7DMDRnzhz5+vpq1apVdkM06zr/kv01sE3gxu15+umn9dVXX+nNN980vwksKysze+1oA86xcuVKffTRR5o4caKysrKUlZWlixcvmvu//PJLnT9/njbgROPHj9e8efP09ttva+/evcrKytIvf/lLc//WrVsl0QacpebQsWbNmkmS/umf/kkPPfSQpOp7rO3cuZM24EI7duzQiRMnFBUVZTfUkjbgPG+99ZaGDBmikJAQTZkyxdx+5coVjR8/XpWVlbQBByHYQffcc4/53DbnomZDsi3ygdv31ltvKSMjQ++9956eeOIJSdUrQUl1n3+Ja+AM06dP17Rp08yfDx8+LIk24Cy7du1SZWWlhg4dqv79+6t///52PacjRozQZ599RhtwoX79+iktLc3sqTh27Jgk2oCzBAUFmc9r9jbce++95vPi4mLagAvZhmHahgDa0Aac4+LFi5o9e7YuXbqksWPHKikpSQsXLjT3nz17Vl9++SVtwEEIdlD37t3N5+Xl5ZKqV5Gy6dq1q8vr5En27Nmj3/zmN1q+fLliYmIkVZ/nRx99VOfOnVNQUJC5oITt/EtXr8Fdd91lzsdDwyUkJJjP+/TpI4k24CzXG05zbRnagGs1b95cs2bNkiQNGjRIEm3AWcLCwsxRAiUlJeaH1NatW5tlQkNDaQMuYhiGPvjgA7Vp00aPPvqo3T7agHOkpqaa0x5s5/Cll16y+3IjNzeXNuAgBLtG4sqVK+bzmr+oJGnMmDHmH57Tp09Lqv4GRZL8/Pz05JNPuqiWnse26lZZWZlWrlyphx56SL1791bHjh1VXFysn/3sZ/Lx8dGYMWMkXT3/lZWVOn/+vKTqYYS4dVVVVXrjjTf0hz/8we7/f5MmTSRVfztru48RbcA5VqxYobKyMrtHz549zf3ffvuthg8fThtwooyMDM2cOVOZmZl2223LiQ8fPlwSbcBZWrRoYf6eqaysNJdst/0d9vLyUr9+/WgDLrJz504VFxdr5MiRtRbooA04R81bF9TstY6MjDSf274AoQ04gO1O5fBcJ0+eNLy8vAxJhiQjPT29VpmEhARDkjF69GjDMAwjMjLSkGRMnTrV1dX1GOXl5UZERIR53q99PP3002bZv//970br1q0NSUZBQYGxa9cuQ5LRrFkz48iRI248CuvauXOnea4HDBhgbNu2zSgrKzMSEhKMpk2bGllZWXblaQOu8cADD5jX5fjx4+Z22oBz1Dzf48aNM44cOWLk5uYaAwYMMJYsWWJXljbgHAcOHDDuvPNOQ5Lx4osvGoZhGAMGDDAkGfPnzzfL0Qacb8aMGYYkIzU1tc79tAHHu3DhghEcHGxIMgYPHmxUVVUZVVVVRp8+fQxJxrBhw4yqqirDMGgDDWHLcwQ7D/aPf/zDGDNmjNGlSxe7QHHXXXcZo0ePNn788UezbGVlpTF58mTD39/f6NWrl+Hr62tMmTLFqKiocOMRWNu8efOuG+okGb/73e/syu/Zs8cIDg42AgMDjXbt2hmdOnUyvvjiCzfV3voqKiqM8PBwu3Pu6+trPP7443X+zqMNuEZoaKh5PU6ePGm3jzbgeO+9957Rvn1785z7+PgYoaGhxurVq2uVpQ04z7Zt24ywsDCjSZMmRmhoqNG6dWvjlVdeqVWONuA8VVVVRmBgoNG6dWujvLy8zjK0AefIzc01fvnLXxqSjIceesi47777DB8fH2Pq1KnG+fPn7crSBm6PLc95FRQUGBJjh1Ht4sWLys3NVY8ePdSqVSt3V6dROnDggKqqqtSjR496zVHCjRUWFuro0aNq3bq1unXrpubNm9+wPG3A/WgDjmUYhvbu3avLly8rNDS0zpvE10QbcJ7i4mKdPHlSvXr1sluR8Vq0AcerqqpSenq6WrdurQcffPCGZWkDznHs2DEVFRWpWbNmuu+++274u4g2cGsKCwslSQQ7AAAAALAoW7Bj8RQAAAAAsDiCHQAAAABYHMEOAAAAACyOYAcAAAAAFkewAwAAAACLI9gBAAAAgMUR7AAAAADA4gh2AAAAAGBxBDsAAAAAsDiCHQAAAABYHMEOAAAAACyOYAcAAAAAFkewAwAAAACLI9gBAAAAgMUR7AAAAADA4gh2AAAAAGBxBDsAAAAAsDiCHQAAAABYHMEOAAAAACyOYAcAAAAAFkewAwAAAACLI9gBAAAAgMUR7AAAAADA4gh2AAAAAGBxBDsAAAAAsDiCHQAAAABYHMEOAAAAACyOYAcAAAAAFkewAwAAAACLI9gBAAAAgMUR7AAAAADA4gh2AAAAAGBxBDsAAAAAsDiCHQAAAABYHMEOAAAAACyOYAcAAAAAFkewAwAAAACL87U9KSwsdGc9AAAAAAC3yUuSCgoKDHdXBAAAAABwe/4Pcu2APakqsXMAAAAASUVORK5CYII=;" vertex="1" parent="1">
          <mxGeometry y="330" width="476.7" height="290" as="geometry" />
        </mxCell>
      </root>
    </mxGraphModel>
  </diagram>
</mxfile>
